<?xml version="1.0" encoding="utf-8"?>
<!-- Generator: Adobe Illustrator 19.0.0, SVG Export Plug-In . SVG Version: 6.00 Build 0)  -->
<svg version="1.1" id="Layer_1" xmlns="http://www.w3.org/2000/svg" xmlns:xlink="http://www.w3.org/1999/xlink" x="0px" y="0px"
	 viewBox="233 1248.5 1600 100" style="enable-background:new 233 1248.5 1600 100;" xml:space="preserve">
<style type="text/css">
	.st0{clip-path:url(#SVGID_2_);}
	.st1{fill:#FFFFFF;}
	.st2{opacity:0.1501;fill:#F1919C;enable-background:new    ;}
	.st3{opacity:0.6595;fill:#FFFFFF;enable-background:new    ;}
</style>
<g>
	<defs>
		<rect id="SVGID_1_" x="233" y="1248.5" width="1600" height="100"/>
	</defs>
	<clipPath id="SVGID_2_">
		<use xlink:href="#SVGID_1_"  style="overflow:visible;"/>
	</clipPath>
	<g class="st0">
		<path class="st1" d="M1833,1342.3c-252-34.3-1778-7.8-1778,17c0,1.8,34.8,333.3,50.6,337.3c88.7,22.3,773.1,25.1,2053.3,8.3
			v-345.6C2109.6,1370.9,2001,1365.2,1833,1342.3L1833,1342.3z"/>
		<path class="st2" d="M2159,1390.9v-102.6c-370.3-33.6-711.1-37.1-1022.3-10.5c-311.2,26.7-637.9,23.4-980-9.8
			c-0.9,56.8-0.9,85.2,0,85.3c1.4,0.1,1.4,24.3,1000.8-41.5C1464.8,1291.7,1798.6,1318,2159,1390.9L2159,1390.9z"/>
		<path class="st3" d="M2158.8,1277.1c60,59.9,64,94.1,12,102.7c-78,12.9-407,22.2-749-18.3c-342-40.5-968.3-6.9-1249-7.5
			c-60-70.4-60-105.6,0-105.6c90,0,452,82.3,993,44.3S1934.8,1262.5,2158.8,1277.1L2158.8,1277.1z"/>
	</g>
</g>
</svg>
