<?xml version="1.0" encoding="UTF-8"?>
<svg width="334px" height="390px" viewBox="0 0 334 390" version="1.1" xmlns="http://www.w3.org/2000/svg" xmlns:xlink="http://www.w3.org/1999/xlink">
    <!-- Generator: Sketch 51.2 (57519) - http://www.bohemiancoding.com/sketch -->
    <title>Shape</title>
    <desc>Created with Sketch.</desc>
    <defs></defs>
    <g id="Page-2" stroke="none" stroke-width="1" fill="none" fill-rule="evenodd">
        <polygon id="Shape" fill="#FFFFFF" points="296.740653 129.999999 278.220085 111.433623 167.102551 111.433623 194.880465 83.5722707 222.658379 55.7109176 194.880465 27.8613529 167.096673 0 55.97914 0 83.7629316 27.8613529 111.540845 55.7109176 83.7629316 83.5722707 55.97914 111.433623 37.4644491 129.999999 0.423312051 167.144541 55.97914 222.861353 111.540845 167.144541 148.581983 129.999999 167.096673 111.433623 167.102551 111.433623 167.096673 111.433623 185.62312 129.999999 222.658379 167.144541 167.096673 222.861353 111.540845 278.57227 167.096673 334.283188 139.324637 362.144541 111.540845 390 222.658379 390 250.436293 362.144541 278.220085 334.283188 222.658379 278.57227 278.220085 222.861353 333.781791 167.144541"></polygon>
    </g>
</svg>