<svg enable-background="new 0 0 512 512" height="512" viewBox="0 0 512 512" width="512" xmlns="http://www.w3.org/2000/svg"><g fill="#fd2500"><path d="m428.509 321.376h-79.734v-5.787c13.294-5.871 25.563-14.696 36.124-26.183 7.92-8.613 14.484-18.409 19.517-28.907h9.073c19.107 0 34.652-15.545 34.652-34.652 0-16.575-11.7-30.462-27.273-33.854 8.083-3.415 13.771-11.424 13.771-20.737v-13.24c0-9.919-6.453-18.352-15.379-21.338-7.02-44.619-34.826-81.227-71.675-96.565 4.74-7.981 7.508-17.504 7.508-27.732 0-6.827-5.554-12.381-12.38-12.381h-67.58c-6.826 0-12.38 5.554-12.38 12.381 0 10.228 2.768 19.751 7.508 27.732-36.849 15.338-64.655 51.947-71.675 96.565-8.926 2.986-15.379 11.42-15.379 21.338v13.24c0 9.313 5.688 17.322 13.771 20.737-15.573 3.392-27.273 17.279-27.273 33.854 0 19.107 15.545 34.652 34.652 34.652h9.073c5.032 10.499 11.597 20.294 19.517 28.907 10.562 11.487 22.831 20.311 36.124 26.183v5.787h-79.734c-16.877 0-30.608 13.731-30.608 30.608v97.643h-18.34c-12.407 0-22.5-10.093-22.5-22.5v-178.732h4.125c6.893 0 12.5-5.607 12.5-12.5v-14.772h20.881c6.893 0 12.5-5.607 12.5-12.5v-129.108c0-6.893-5.607-12.5-12.5-12.5h-1.924v-12.015c0-6.893-5.607-12.5-12.5-12.5h-61.164c-6.893 0-12.5 5.607-12.5 12.5v12.015h-1.924c-6.893 0-12.5 5.607-12.5 12.5v129.108c0 6.893 5.607 12.5 12.5 12.5h20.881v14.772c0 6.893 5.607 12.5 12.5 12.5h4.125v178.733c0 20.678 16.822 37.5 37.5 37.5h18.34v34.095c0 7.321 5.956 13.277 13.277 13.277h273.834c7.321 0 13.277-5.956 13.277-13.277v-146.738c0-16.878-13.731-30.609-30.608-30.609zm-346.202-263.876h56.164v9.515h-56.164zm-14.424 47.5h38.617c4.142 0 7.5-3.358 7.5-7.5s-3.358-7.5-7.5-7.5h-38.617v-7.985h85.012v7.985h-9.395c-4.142 0-7.5 3.358-7.5 7.5s3.358 7.5 7.5 7.5h9.395v76h-85.012zm0 101.123v-10.123h85.012v10.123zm33.381 27.272v-12.272h18.25v12.272zm331.877-7.547c0 10.836-8.816 19.652-19.652 19.652h-3.089c3.701-11.462 5.661-23.444 5.661-35.422v-3.694c9.622 1.266 17.08 9.502 17.08 19.464zm-93.131-210.848c-.484 7.676-3.087 14.683-7.129 20.266-7.722-1.906-15.738-2.913-23.958-2.913-8.221 0-16.237 1.007-23.959 2.913-4.042-5.583-6.644-12.59-7.129-20.266zm-135.653 230.5c-10.836 0-19.652-8.816-19.652-19.652 0-9.962 7.458-18.197 17.079-19.464v3.694c0 11.978 1.96 23.96 5.661 35.422zm1.35-66.743c-4.136 0-7.5-3.364-7.5-7.5v-13.24c0-4.136 3.364-7.5 7.5-7.5h131.793c4.142 0 7.5-3.358 7.5-7.5s-3.358-7.5-7.5-7.5h-123.5c9.368-50.316 48.37-88.165 94.923-88.165s85.555 37.849 94.923 88.165h-25.346c-4.142 0-7.5 3.358-7.5 7.5s3.358 7.5 7.5 7.5h33.639c4.136 0 7.5 3.364 7.5 7.5v13.24c0 4.136-3.364 7.5-7.5 7.5zm38.282 100.497c-17.289-18.803-27.205-44.017-27.205-69.177v-16.321h184.277v16.321c0 25.16-9.915 50.374-27.205 69.177-17.664 19.211-40.724 29.792-64.934 29.792-24.209 0-47.27-10.58-64.933-29.792zm32.584 57.123c4.142 0 7.5-3.358 7.5-7.5v-8.041c8.066 2.114 16.391 3.21 24.85 3.21 8.458 0 16.784-1.096 24.852-3.21v8.041c0 4.142 3.358 7.5 7.5 7.5h25.908c-16.517 14.883-37.058 23.177-58.259 23.177-21.202 0-41.742-8.294-58.259-23.177zm-46.739-.001c20.585 24.307 49.211 38.177 79.089 38.177 29.877 0 58.503-13.87 79.089-38.177h10.439l-1.761 2.214c-22.271 28.008-54.261 44.071-87.768 44.071-33.506 0-65.496-16.064-87.767-44.071l-1.761-2.214zm130.982 157.519c0 1.683-1.422 3.105-3.104 3.105h-38.725v-31.785c0-.539-.042-1.068-.104-1.591l12.228-12.227c.798-.798 1.736-.917 2.225-.917.466 0 1.359.11 2.098.848 1.152 1.152 1.119 3.131-.07 4.321l-6.169 6.169c-2.146 2.144-2.788 5.371-1.627 8.173s3.896 4.63 6.929 4.63h23.215c1.683 0 3.104 1.422 3.104 3.105zm83.301 3.105h-68.577c.177-1.009.276-2.045.276-3.105v-16.169c0-9.983-8.122-18.105-18.104-18.105h-7.516c2.316-6.388.933-13.811-4.158-18.9-3.38-3.379-7.891-5.241-12.703-5.241-4.851 0-9.408 1.886-12.832 5.311l-11.561 11.562c-1.037-.261-2.116-.415-3.232-.415h-20.21c-4.142 0-7.5 3.358-7.5 7.5s3.358 7.5 7.5 7.5h18.487v30.062h-130.258v-93.779h30.961c2.236 0 4.055 1.818 4.055 4.054v52.163c0 4.142 3.358 7.5 7.5 7.5h34.255c4.142 0 7.5-3.358 7.5-7.5s-3.358-7.5-7.5-7.5h-26.756v-44.663c0-10.506-8.548-19.054-19.055-19.054h-30.961v-36.236c0-8.607 7.002-15.608 15.608-15.608h10.894l9.184 11.55c25.133 31.607 61.402 49.735 99.507 49.735 38.106 0 74.375-18.128 99.508-49.735l9.185-11.55h10.895c8.606 0 15.608 7.002 15.608 15.608z"/><path d="m425.74 398.988c-4.912-4.912-11.443-7.617-18.389-7.617-6.948 0-13.478 2.706-18.385 7.615l-.221.221-.22-.22c-4.912-4.912-11.441-7.617-18.387-7.617s-13.477 2.705-18.388 7.617c-4.907 4.907-7.609 11.436-7.609 18.387s2.702 13.481 7.609 18.388l28.956 28.956c2.121 2.116 4.938 3.281 7.933 3.281 2.986 0 5.795-1.159 7.907-3.258l29.192-28.978c4.913-4.912 7.618-11.442 7.618-18.389s-2.705-13.477-7.616-18.386zm-10.59 26.149-26.503 26.31-26.29-26.29c-2.074-2.074-3.216-4.838-3.216-7.782s1.142-5.707 3.215-7.78c2.079-2.079 4.842-3.223 7.782-3.223 2.939 0 5.702 1.145 7.781 3.224l5.522 5.521c2.929 2.928 7.676 2.928 10.605 0l5.526-5.524c2.077-2.078 4.839-3.222 7.778-3.222s5.703 1.145 7.781 3.224c2.078 2.077 3.223 4.84 3.223 7.779 0 2.94-1.144 5.703-3.204 7.763z"/><path d="m285.078 208.031c-2.929-2.929-7.678-2.929-10.606 0-6.56 6.56-17.233 6.56-23.793 0-2.929-2.929-7.678-2.929-10.606 0-2.929 2.929-2.929 7.678 0 10.606 6.204 6.204 14.354 9.306 22.503 9.306s16.299-3.102 22.503-9.306c2.928-2.928 2.928-7.677-.001-10.606z"/><path d="m377.774 208.032c-2.929-2.929-7.678-2.929-10.606 0-6.56 6.56-17.233 6.56-23.793 0-2.929-2.929-7.678-2.929-10.606 0-2.929 2.929-2.929 7.678 0 10.606 6.203 6.204 14.353 9.306 22.502 9.306s16.299-3.102 22.503-9.306c2.929-2.929 2.929-7.678 0-10.606z"/><path d="m320.477 237.129h-4.054v-16.764c0-4.142-3.358-7.5-7.5-7.5s-7.5 3.358-7.5 7.5v19.264c0 6.893 5.607 12.5 12.5 12.5h6.554c4.142 0 7.5-3.358 7.5-7.5s-3.358-7.5-7.5-7.5z"/><path d="m342.227 264.844c-2.929-2.929-7.678-2.929-10.607 0-12.516 12.516-32.88 12.516-45.396 0-2.929-2.929-7.678-2.929-10.606 0-2.929 2.929-2.929 7.678 0 10.607 9.182 9.182 21.243 13.773 33.304 13.773 12.062 0 24.123-4.591 33.305-13.773 2.929-2.929 2.929-7.678 0-10.607z"/><path d="m126.609 136.446h-9.054v-9.054c0-4.142-3.358-7.5-7.5-7.5s-7.5 3.358-7.5 7.5v9.054h-9.054c-4.142 0-7.5 3.358-7.5 7.5s3.358 7.5 7.5 7.5h9.054v9.054c0 4.142 3.358 7.5 7.5 7.5s7.5-3.358 7.5-7.5v-9.054h9.054c4.142 0 7.5-3.358 7.5-7.5s-3.358-7.5-7.5-7.5z"/></g></svg>