<svg height="90" viewBox="0 0 90 90" width="90" xmlns="http://www.w3.org/2000/svg"><g fill="none" transform="translate(-8 -7)"><path d="m40.8590807 92.5341133c17.3344736 0 49.2700518-16.5699008 49.2700518-37.0869571 0-20.5170562-13.3296012-45.51307894-30.6640748-45.51307894s-43.8309671 14.90857734-43.8309671 35.42563364c0 20.5170562 7.8905165 47.1744024 25.2249901 47.1744024z" fill="#fbf4f3" transform="matrix(-.40673664 -.91354546 .91354546 -.40673664 27.585827 120.382635)"/><g fill="#fd2500"><path d="m15.5124836 24.6524823c-.7338346 0-1.2230099.4857608-1.2230099 1.2144733v4.8580354c0 .7287125.4891753 1.2144733 1.2230099 1.2144733.7338345 0 1.2230098-.4857608 1.2230098-1.2144733v-4.8580354c0-.7287125-.4891753-1.2144733-1.2230098-1.2144733z"/><path d="m17.9967716 27.0567376h-4.8921828c-.7338346 0-1.2230099.4857608-1.2230099 1.2144733 0 .7287124.4891753 1.2144733 1.2230099 1.2144733h4.8921828c.7338346 0 1.2230099-.4857609 1.2230099-1.2144733 0-.7285701-.4891753-1.2144733-1.2230099-1.2144733z"/><g transform="translate(22.315789 16.638298)"><path d="m60.183727 21.6259327c-.0002821-.0022655-.0008462-.0045311-.0009873-.0069382-.0039493-.0369568-.0094502-.0737719-.0167847-.1103039-.0032441-.0164252-.0080398-.0321425-.0119891-.0482845-.0055009-.0222307-.0102966-.0444614-.0170669-.0665505-.0057829-.0186908-.0129764-.0366735-.0196057-.0550811-.0067703-.0186908-.0126943-.0376648-.020452-.0560723-.008745-.021098-.0191825-.0412047-.0290559-.0615946-.0073345-.0150093-.0136817-.0303017-.0217214-.0451694-.0172079-.0320009-.0361084-.0630106-.0561372-.0933123-.0018336-.0026903-.0032441-.0055223-.0050778-.0083542-.0224266-.0334168-.0465459-.0655593-.0722167-.0964274-.0005641-.000708-.0011283-.0015576-.0016925-.0022655-.0074756-.0089206-.0157974-.0167085-.023414-.0254875-.0179132-.0202483-.0356852-.0406382-.0548678-.0597538-.0142459-.0143013-.0294791-.027045-.0442891-.0404967-.0141049-.0127437-.0279276-.0257706-.0425966-.0379479-.0173489-.0141597-.0354031-.0269034-.0533162-.0400719-.0136817-.0099118-.0269402-.0203899-.0410451-.0297353-.0181952-.0120357-.0368136-.0227971-.055573-.0338416-.0152332-.0090622-.0303253-.0184076-.0459817-.0267618-.01749-.0093454-.0355441-.0174164-.0533162-.0257706-.0179131-.0084958-.0355442-.0171332-.0540215-.0246379-.0165026-.0067966-.0332874-.0123189-.0499311-.0184076-.0203109-.007363-.0406219-.0148676-.0613559-.0210979-.0160795-.0048143-.0325822-.0084958-.0488027-.0126021-.0215804-.0055223-.0430197-.0113277-.0650233-.0155756-.0184773-.0036815-.0372367-.0058055-.0558551-.0084958-.0198878-.0029736-.0394935-.0063719-.0596634-.0083542-.0269402-.0025488-.0538804-.0032568-.0809616-.0041063-.011566-.0002832-.0227088-.0016992-.0342748-.0016992h-.006065c-.0002821 0-.0004232 0-.0007053 0h-14.4300799c-.0002821 0-.0004232 0-.0007053 0h-.006065c-.011566 0-.0228498.001416-.0342747.0016992-.0270813.0008495-.0540215.0015575-.0809617.0041063-.0201699.0019823-.0397756.0053806-.0596634.0083542-.0186184.0026903-.0373778.0049559-.0558551.0084958-.0220036.0042479-.0434429.0100533-.0650233.0155756-.0163616.0041063-.0327232.0077878-.0488026.0126021-.0208752.0062303-.0410451.0137349-.061356.0210979-.0166437.0059471-.0335695.011611-.0499311.0184076-.0183363.0075047-.0361083.0162837-.0540215.0246379-.0179131.0083542-.0358262.0165668-.0533162.0257706-.0156564.0083542-.0307485.0176996-.0459817.0267618-.0186184.0110445-.0373778.0218059-.055573.0338416-.0141048.0093454-.0273634.0198235-.0410451.0297353-.0179131.0130269-.0359673.0259122-.0533162.0400719-.014669.0120357-.0284917.0252042-.0425966.0379479-.01481.0134517-.0300432.0261954-.0442891.0404967-.0191826.0191156-.0369546.0393639-.0548678.0597538-.0076166.0086374-.0159384.0164253-.023414.0254875-.0005642.0007079-.0011283.0015575-.0016925.0022655-.0255298.0308681-.0497901.0630106-.0722167.0964274-.0018337.0026903-.0032441.0055223-.0050778.0083542-.0200288.0303017-.0389293.0611698-.0561372.0933123-.0078987.0147261-.0143869.0301601-.0217214.0451694-.0098734.0203899-.0203109.0404966-.0290559.0615946-.0077577.0184075-.0136817.0373815-.020452.0560723-.0066293.0184076-.0139638.0363903-.0196057.0550811-.0067703.0219475-.011566.0443198-.0170669.0665505-.0039493.016142-.0087449.0318593-.0119891.0482845-.0073345.036532-.0128353.0733471-.0167847.1103039-.0002821.0022655-.0008463.0045311-.0009873.0069382-.0040904.0400719-.0060651.080427-.0060651.1206405 0 .0009911-.0001411.0018407-.0001411.0028319v10.8746318c0 .6673455.5388043 1.2082452 1.2035646 1.2082452h14.4433384c.6647603 0 1.2035646-.5408997 1.2035646-1.2082452v-10.8746318c0-.0009912-.0001411-.0018408-.0001411-.0028319-.0002821-.0403551-.0022568-.0805686-.0063472-.1206405zm-4.521724 1.331576-3.8973036 3.2604072-3.8971625-3.2602656h7.7944661zm-9.9154083 8.4581413v-7.086635l5.2475582 4.3899246c.4464177.3733907 1.0946753.3733907 1.541093 0l5.2475582-4.3899246v7.086635z"/><path d="m22.8780225 48.3316495c.6647603 0 1.2035645-.5410413 1.2035645-1.2082452v-10.8746318c0-.0009912-.0001411-.0018408-.0001411-.0028319 0-.0402135-.0019746-.080427-.006065-.1206405-.0002821-.0025487-.0008463-.0049559-.0011284-.007363-.0039494-.0368152-.0093092-.0734887-.0166437-.1098791-.0033852-.0164252-.0081808-.0324257-.0121302-.0485677-.0053598-.0220891-.0102965-.0443198-.0169257-.0661257-.005783-.0188324-.0131175-.0369567-.0197468-.0553643-.0067703-.0186908-.0126943-.0375232-.0203109-.0557891-.0088861-.021098-.0193237-.0413463-.0293381-.0618778-.0071934-.0148677-.0135406-.0301601-.0214393-.0447446-.01749-.0325673-.0366725-.0641433-.0569835-.0947282-.0014105-.0022656-.0026799-.0045311-.0040904-.0067967-.0224267-.0334168-.046687-.0655593-.0722167-.096569-.0005642-.000708-.0011284-.0015576-.0016926-.0022655-.0073345-.0089206-.0156563-.0165669-.0232729-.0252043-.0179131-.0203899-.0358263-.0407798-.0551499-.060037-.0142458-.0141597-.029338-.0269034-.0441481-.0402135-.0142458-.0127437-.0280686-.0259122-.0427376-.0380895-.0172079-.0141597-.035262-.0269034-.0530341-.0399303-.0138227-.0100534-.0272223-.0203899-.0413271-.0298769-.0180542-.0120357-.0366726-.0226555-.0551499-.0335584-.0153743-.0090622-.0306075-.0185492-.0464049-.027045-.01749-.0092038-.0354031-.0172748-.0531752-.0257706-.0179131-.0084958-.0356852-.0171332-.0540214-.0246379-.0165027-.0067966-.0332874-.0123189-.0499311-.0184076-.0203109-.007363-.0406219-.0148676-.061356-.0210979-.0160795-.0048143-.0325821-.0084958-.0488027-.0126021-.0215803-.0055223-.0430197-.0113277-.0650232-.0155756-.0184773-.0036815-.0372367-.0058055-.0558551-.0084958-.0198878-.0029736-.0394935-.0063719-.0596634-.0083542-.0269402-.0025488-.0538804-.0032568-.0809617-.0041064-.0115659-.0002831-.0227087-.0016991-.0342747-.0016991h-.0060651c-.0002821 0-.0004231 0-.0007052 0h-14.43022099c-.0002821 0-.00042315 0-.00070525 0h-.00606507c-.01156595 0-.02284981.001416-.03427472.0016991-.02708126.0008496-.05402147.0015576-.08096168.0041064-.0201699.0019823-.0397756.0053806-.0596634.0083542-.01861837.0026903-.03737778.0049558-.0558551.0084958-.02200352.0042479-.04344285.0100533-.06502323.0155756-.0163616.0041063-.03272319.0077878-.04880269.0126021-.02087514.0062303-.04104503.0137349-.06135598.0210979-.01664369.0059471-.03356948.011611-.04993107.0184076-.01833627.0075047-.03610835.0162837-.05402147.0246379-.01777208.0083542-.0356852.0164252-.05317518.0257706-.0157974.0084958-.03103061.0178412-.04640487.027045-.01847732.0109029-.03709568.0216643-.05514986.0335584-.01424587.009487-.02764545.0198235-.04132713.0298769-.01791312.0130269-.03582625.0257706-.05303413.0399303-.01481006.0120357-.02863279.0252042-.04273761.0380895-.01481007.0133101-.02990223.0260538-.0441481.0402135-.01932361.0191156-.03723673.0395055-.05514986.060037-.0076166.0086374-.0157974.0164253-.02327295.0252043-.0005642.0007079-.00112839.0015575-.00169258.0022655-.02552973.0308681-.04979003.0630106-.07221669.096569-.00155153.0022656-.00267992.0045311-.0040904.0067967-.02031095.0307264-.03949351.0621609-.05698349.0947282-.0078987.0147261-.01424587.0298769-.02143933.0447446-.01001442.0205315-.02045199.0407798-.02933803.0618778-.0076166.0184075-.01368168.0372399-.02031094.0557891-.00662927.0184076-.01396378.0365319-.01974675.0553643-.00662927.0218059-.01156596.0440366-.01692579.0661257-.00394935.0162836-.00888604.0321425-.01213015.0485677-.00733451.0363904-.01269434.0730639-.01664369.1098791-.0002821.0025487-.00084629.0048143-.00112839.007363-.00409039.0400719-.00606507.080427-.00606507.1206405 0 .0009911-.00014105.0018407-.00014105.0028319v10.8746318c0 .6673455.53880423 1.2082452 1.20356452 1.2082452zm-13.23977399-2.4164905v-7.086635l5.24755829 4.3899246c.4464176.3733907 1.0946753.3733907 1.5410929 0l5.2475582-4.3899246v7.086635zm2.12080119-8.4581413h7.794466l-3.8971625 3.2604072z"/><path d="m32.5069618 6.04150928h6.0181047c.6647603 0 1.2035645-.54089965 1.2035645-1.20824521 0-.66734557-.5389452-1.20824522-1.2035645-1.20824522h-6.0181047c-.6647603 0-1.2035645.54104125-1.2035645 1.20824522 0 .66720396.5388042 1.20824521 1.2035645 1.20824521z"/><path d="m27.6924216 6.04150928h1.2035645c.6647603 0 1.2035645-.54089965 1.2035645-1.20824521 0-.66734557-.5389452-1.20824522-1.2035645-1.20824522h-1.2035645c-.6647603 0-1.2035645.54104125-1.2035645 1.20824522 0 .66720396.5388042 1.20824521 1.2035645 1.20824521z"/><path d="m67.4116024 27.0657973c0-6.9218164-5.7659105-12.5957404-13.2397739-13.612122v-4.99567558-3.6707546c.000141-2.64403645-2.134765-4.78724512-4.7685585-4.78724512h-31.3854874c-2.6337935 0-4.7686995 2.14320867-4.7686995 4.78724512v3.6707546 2.41663208c-.6647603 0-1.2035645.5408996-1.2035645 1.2082452v1.2082452c0 .6673456.5389453 1.2082452 1.2035645 1.2082452v1.2082452c-.6647603 0-1.2035645.5408997-1.2035645 1.2082452v1.2085285c0 .6673455.5389453 1.2082452 1.2035645 1.2082452v1.2082452c-.6647603 0-1.2035645.5410412-1.2035645 1.2082452v1.2082452c0 .6673456.5389453 1.2082452 1.2035645 1.2082452v3.7872888c-7.47386343 1.0163816-13.23977392 6.6903057-13.23977392 13.612122 0 6.9529677 5.79778738 12.7945424 13.23977392 13.8468895v6.2110007 6.0873866c0 2.6440364 2.134906 4.7872451 4.7686995 4.7872451h31.3853463c2.6337936 0 4.7686996-2.1432087 4.7686996-4.7872451v-6.0873866-20.7102265c7.4421276-1.0524887 13.2397739-6.8939218 13.2397739-13.8468895zm-49.3938198-24.64916527h31.3853463c1.304414 0 2.3614295 1.06126778 2.3614295 2.37061309v2.46250938h-36.1082052v-2.46250938c0-1.30948691 1.0571565-2.37061309 2.3614294-2.37061309zm-15.60120332 39.14867427c0-5.8710267 5.2310556-10.7605047 11.98077742-11.3065019.0469691.002124.0943613.002124.1423177-.0014159.3753293-.0273282.6562974-.0426207.9168135-.0478597.0665748-.0008496.1328674-.002124.1997243-.002124 7.3470611 0 13.2397739 5.1266526 13.2397739 11.3579015 0 2.1696873-.7271036 4.1465198-2.1607178 6.0337215-.1816701.2391569-.2679916.5377845-.2420387.8374033.1837858 2.1226771.5561531 4.0254545 1.1864977 5.5513013-.9816957-.1975275-1.9497097-.4464547-2.8605991-.7511709-.9654752-.3229822-1.8216379-.6952401-2.5381629-1.1150745-.3228594-.1891733-.7149734-.2170679-1.0611058-.0754711-1.8205095.7449406-3.6238111 1.1188976-5.5637884 1.1188976-.0655874 0-.1308927-.0014159-.1963391-.0022655-.2591056-.0053807-.5388042-.0212395-.9166724-.0499837-.0486617-.0036815-.0967591-.0036815-.1442924-.0016991-6.70388116-.5683695-11.98218792-5.6259228-11.98218792-11.5456589zm13.23977392 26.1449936v-4.8791414h14.8712788c-1.0000319.8855462-1.6315048 2.1807318-1.6315048 3.6248772 0 1.4441455.6314729 2.7393311 1.6315048 3.6248773h-12.5098494c-1.3042729 0-2.3614294-1.0611262-2.3614294-2.3706131zm18.0541731 1.1623679c-1.3296616 0-2.4072701-1.0817993-2.4072701-2.4166321 0-1.3348327 1.0776085-2.416632 2.4072701-2.416632 1.3296617 0 2.4072701 1.0817993 2.4072701 2.416632 0 1.3348328-1.0776084 2.4166321-2.4072701 2.4166321zm15.6927437 1.2082452h-12.5098494c1.0000319-.8855462 1.6315049-2.1807318 1.6315049-3.6248773 0-1.4441454-.631473-2.739331-1.6315049-3.6248772h14.8712788v4.8791414c0 1.3094869-1.0571565 2.3706131-2.3614294 2.3706131zm2.3614294-9.666245h-36.1084872l.000141-4.8331224c2.0660745 0 4.0070391-.3657445 5.9306548-1.0854808.7450168.3899574 1.5729699.7326216 2.471165 1.03309 1.3028625.4359764 2.6875329.7632065 4.0706518.99939.4830902.0825509.9323288.1479686 1.3368551.1980938.2464113.0305849.4259657.0494173.5278025.0584795 1.1300784.1003921 1.7583072-1.2808844.9426253-2.0724103-1.0364224-1.0056202-1.7165569-3.2833458-2.0018975-6.035279 1.5550567-2.183139 2.368905-4.5400172 2.368905-7.1121225 0-7.6490573-7.0408454-13.7745335-15.646903-13.7745335v-18.12438627h36.1084872l-.000141 3.62487727c-8.6060576 0-15.646903 6.1254761-15.646903 13.7745335 0 2.5721053.8138482 4.9289835 2.3689049 7.1121225-.2853405 2.7519332-.9654751 5.0296588-2.0018975 6.035279-.8156818.7915259-.187453 2.1728024.9426254 2.0724103.1018368-.0090622.2813912-.0278946.5278024-.0584795.4045263-.0501252.8537649-.1155429 1.3368551-.1980938 1.3831189-.2361835 2.7677894-.5634136 4.0706519-.99939.8981951-.3004684 1.7262892-.6431326 2.4711649-1.0330901 1.9236157.7197364 3.8645804 1.0854809 5.9306548 1.0854809zm1.2573039-21.8032118c-.0475332-.002124-.0956307-.0019824-.1442923.0016991-.3778682.0286026-.6574258.044603-.9166725.0499837-.0654463.0008496-.1307517.0022655-.1963391.0022655-1.9398363 0-3.7431378-.373957-5.5637884-1.1188976-.3461323-.1415968-.7382464-.1138438-1.0611058.0754711-.716525.4198344-1.5726877.7920923-2.5381628 1.1150745-.9108895.3047162-1.8789035.5536434-2.8605991.7511709.6303445-1.5258468 1.0027118-3.4286242 1.1864977-5.5513013.0259528-.2996188-.0603687-.5982464-.2420388-.8374033-1.4336142-1.8872017-2.1607178-3.8638926-2.1607178-6.0337215 0-6.2313905 5.8925718-11.3579015 13.239774-11.3579015.0667158 0 .1331495.0012744.1997242.002124.2605161.005239.5414842.0205315.9168135.0478597.0480975.0035399.0954897.0035399.1423177.0014159 6.7497219.5459972 11.9807775 5.4354752 11.9807775 11.3065019.0002821 5.9197361-5.2780247 10.9772894-11.982188 11.5456589z"/></g><path d="m86.1440625 71.1347518c-.7338346 0-1.2230099.4857608-1.2230099 1.2144733 0 .7287124.4891753 1.2144732 1.2230099 1.2144732s1.2230099-.4857608 1.2230099-1.2144732c0-.7287125-.4891753-1.2144733-1.2230099-1.2144733z"/><path d="m27.5519572 72.7375887c-.7338345 0-1.2230098.4857608-1.2230098 1.2144732 0 .7287125.4891753 1.2144733 1.2230098 1.2144733.7338346 0 1.2230099-.4857608 1.2230099-1.2144733 0-.7287124-.4891753-1.2144732-1.2230099-1.2144732z"/></g></g></svg>