<?xml version="1.0" encoding="UTF-8"?>
<svg width="90px" height="90px" viewBox="0 0 90 90" version="1.1" xmlns="http://www.w3.org/2000/svg" xmlns:xlink="http://www.w3.org/1999/xlink">
    <!-- Generator: Sketch 51.2 (57519) - http://www.bohemiancoding.com/sketch -->
    <title>023-phone</title>
    <desc>Created with Sketch.</desc>
    <defs>
        <rect id="path-1" x="0" y="0" width="90" height="90"></rect>
    </defs>
    <g id="023-phone" stroke="none" stroke-width="1" fill="none" fill-rule="evenodd">
        <g id="Call-us">
            <mask id="mask-2" fill="white">
                <use xlink:href="#path-1"></use>
            </mask>
            <g id="Mask" fill-rule="nonzero"></g>
            <g mask="url(#mask-2)">
                <g transform="translate(-3.000000, -6.000000)">
                    <path d="M33.9945467,95.3764535 C52.7621267,95.3764535 87.3379398,77.4489047 87.3379398,55.2507918 C87.3379398,33.0526789 72.9063301,6.00861726 54.1387501,6.00861726 C35.3711701,6.00861726 6.68411152,22.1387229 6.68411152,44.3368357 C6.68411152,66.5349486 15.2269667,95.3764535 33.9945467,95.3764535 Z" id="Oval-2" fill="#FBF4F3" fill-rule="nonzero" transform="translate(47.011026, 50.692535) rotate(189.000000) translate(-47.011026, -50.692535) "></path>
                    <g id="001-smartphone-5" stroke-width="1" fill="none" fill-rule="evenodd" transform="translate(9.762712, 13.664234)">
                        <path d="M54.6094764,0 L23.048635,0 C20.3781416,0 18.1931538,2.19023252 18.1931538,4.86713585 L18.1931538,68.1404723 C18.1931538,70.8173757 20.3781416,73.0076082 23.048635,73.0076082 L54.6096186,73.0076082 C57.280112,73.0076082 59.4650999,70.8173757 59.4650999,68.1404723 L59.4650999,4.86713585 C59.4650999,2.19023252 57.280112,0 54.6094764,0 Z M57.0372881,68.1406149 C57.0372881,69.4791379 55.9447942,70.5742541 54.6094764,70.5742541 L23.048635,70.5742541 C21.7133172,70.5742541 20.6208232,69.4791379 20.6208232,68.1406149 L20.6208232,4.86713585 C20.6208232,3.52861289 21.7133172,2.43349663 23.048635,2.43349663 L54.6096186,2.43349663 C55.9449364,2.43349663 57.0374304,3.52861289 57.0374304,4.86713585 L57.0374304,68.1406149 L57.0372881,68.1406149 Z" id="Shape" fill="#FD2500" fill-rule="nonzero"></path>
                        <path d="M18.1930115,7.30077508 L18.1930115,63.2733365 L59.4649576,63.2733365 L59.4649576,7.30077508 L18.1930115,7.30077508 Z M57.0372881,60.8398398 L20.6208232,60.8398398 L20.6208232,9.7344143 L57.0372881,9.7344143 L57.0372881,60.8398398 Z" id="Shape" fill="#FD2500" fill-rule="nonzero"></path>
                        <path d="M43.6845369,3.65038754 L37.6150787,3.65038754 C36.8867494,3.65038754 36.4012439,4.13705835 36.4012439,4.86713585 C36.4012439,5.59721336 36.8867494,6.08388417 37.6150787,6.08388417 L43.6845369,6.08388417 C44.4128662,6.08388417 44.8983717,5.59721336 44.8983717,4.86713585 C44.8985139,4.13705835 44.4128662,3.65038754 43.6845369,3.65038754 Z" id="Shape" fill="#FD2500" fill-rule="nonzero"></path>
                        <path d="M33.9735745,3.65038754 L32.7597397,3.65038754 C32.0314104,3.65038754 31.545905,4.13705835 31.545905,4.86713585 C31.545905,5.59721336 32.0314104,6.08388417 32.7597397,6.08388417 L33.9735745,6.08388417 C34.7019038,6.08388417 35.1874092,5.59721336 35.1874092,4.86713585 C35.1874092,4.13705835 34.7019038,3.65038754 33.9735745,3.65038754 Z" id="Shape" fill="#FD2500" fill-rule="nonzero"></path>
                        <path d="M18.1930115,10.9511626 C17.4646822,10.9511626 16.9791768,11.4378334 16.9791768,12.1679109 L16.9791768,13.3846592 C16.9791768,14.1147368 17.4646822,14.6014076 18.1930115,14.6014076 C18.9213408,14.6014076 19.4068462,14.1147368 19.4068462,13.3846592 L19.4068462,12.1679109 C19.4069885,11.4378334 18.9213408,10.9511626 18.1930115,10.9511626 Z" id="Shape" fill="#FD2500" fill-rule="nonzero"></path>
                        <path d="M18.1930115,15.8182985 C17.4646822,15.8182985 16.9791768,16.3049693 16.9791768,17.0350468 L16.9791768,18.2519377 C16.9791768,18.9820152 17.4646822,19.468686 18.1930115,19.468686 C18.9213408,19.468686 19.4068462,18.9820152 19.4068462,18.2519377 L19.4068462,17.0351894 C19.4069885,16.3051119 18.9213408,15.8182985 18.1930115,15.8182985 Z" id="Shape" fill="#FD2500" fill-rule="nonzero"></path>
                        <path d="M18.1930115,20.6855769 C17.4646822,20.6855769 16.9791768,21.1722477 16.9791768,21.9023252 L16.9791768,23.1190735 C16.9791768,23.8491511 17.4646822,24.3358219 18.1930115,24.3358219 C18.9213408,24.3358219 19.4068462,23.8491511 19.4068462,23.1190735 L19.4068462,21.9023252 C19.4069885,21.1722477 18.9213408,20.6855769 18.1930115,20.6855769 Z" id="Shape" fill="#FD2500" fill-rule="nonzero"></path>
                        <path d="M38.8290557,62.0565882 C36.1585623,62.0565882 33.9735745,64.2468207 33.9735745,66.923724 C33.9735745,69.6006273 36.1585623,71.7908599 38.8290557,71.7908599 C41.499549,71.7908599 43.6845369,69.6006273 43.6845369,66.923724 C43.6845369,64.2468207 41.499549,62.0565882 38.8290557,62.0565882 Z M38.8290557,69.3573632 C37.4937379,69.3573632 36.4012439,68.262247 36.4012439,66.923724 C36.4012439,65.585201 37.4937379,64.4900848 38.8290557,64.4900848 C40.1643735,64.4900848 41.2568674,65.585201 41.2568674,66.923724 C41.2568674,68.262247 40.1643735,69.3573632 38.8290557,69.3573632 Z" id="Shape" fill="#FD2500" fill-rule="nonzero"></path>
                        <path d="M29.117951,14.6015502 C27.0543039,14.6015502 25.4763045,16.1833372 25.4763045,18.2519377 C25.4763045,20.3205382 27.0543039,21.9023252 29.117951,21.9023252 C31.1815981,21.9023252 32.7595975,20.3205382 32.7595975,18.2519377 C32.7595975,16.1833372 31.1815981,14.6015502 29.117951,14.6015502 Z M29.117951,19.468686 C28.3896217,19.468686 27.9041162,18.9820152 27.9041162,18.2519377 C27.9041162,17.5218602 28.3896217,17.0351894 29.117951,17.0351894 C29.8462803,17.0351894 30.3317857,17.5218602 30.3317857,18.2519377 C30.3317857,18.9820152 29.8462803,19.468686 29.117951,19.468686 Z" id="Shape" fill="#FD2500" fill-rule="nonzero"></path>
                        <path d="M38.8290557,14.6015502 C36.7654086,14.6015502 35.1874092,16.1833372 35.1874092,18.2519377 C35.1874092,20.3205382 36.7654086,21.9023252 38.8290557,21.9023252 C40.8927028,21.9023252 42.4707022,20.3205382 42.4707022,18.2519377 C42.4707022,16.1833372 40.8927028,14.6015502 38.8290557,14.6015502 Z M38.8290557,19.468686 C38.1007264,19.468686 37.6152209,18.9820152 37.6152209,18.2519377 C37.6152209,17.5218602 38.1007264,17.0351894 38.8290557,17.0351894 C39.557385,17.0351894 40.0428904,17.5218602 40.0428904,18.2519377 C40.0428904,18.9820152 39.557385,19.468686 38.8290557,19.468686 Z" id="Shape" fill="#FD2500" fill-rule="nonzero"></path>
                        <path d="M29.117951,24.3359645 C27.0543039,24.3359645 25.4763045,25.9177515 25.4763045,27.986352 C25.4763045,30.0549525 27.0543039,31.6367395 29.117951,31.6367395 C31.1815981,31.6367395 32.7595975,30.0549525 32.7595975,27.986352 C32.7595975,25.9177515 31.1815981,24.3359645 29.117951,24.3359645 Z M29.117951,29.2031003 C28.3896217,29.2031003 27.9041162,28.7164295 27.9041162,27.986352 C27.9041162,27.2562745 28.3896217,26.7696037 29.117951,26.7696037 C29.8462803,26.7696037 30.3317857,27.2562745 30.3317857,27.986352 C30.3317857,28.7164295 29.8462803,29.2031003 29.117951,29.2031003 Z" id="Shape" fill="#FD2500" fill-rule="nonzero"></path>
                        <path d="M38.8290557,24.3359645 C36.7654086,24.3359645 35.1874092,25.9177515 35.1874092,27.986352 C35.1874092,30.0549525 36.7654086,31.6367395 38.8290557,31.6367395 C40.8927028,31.6367395 42.4707022,30.0549525 42.4707022,27.986352 C42.4707022,25.9177515 40.8927028,24.3359645 38.8290557,24.3359645 Z M38.8290557,29.2031003 C38.1007264,29.2031003 37.6152209,28.7164295 37.6152209,27.986352 C37.6152209,27.2562745 38.1007264,26.7696037 38.8290557,26.7696037 C39.557385,26.7696037 40.0428904,27.2562745 40.0428904,27.986352 C40.0428904,28.7164295 39.557385,29.2031003 38.8290557,29.2031003 Z" id="Shape" fill="#FD2500" fill-rule="nonzero"></path>
                        <path d="M48.5401604,24.3359645 C46.4765133,24.3359645 44.8985139,25.9177515 44.8985139,27.986352 C44.8985139,30.0549525 46.4765133,31.6367395 48.5401604,31.6367395 C50.6038075,31.6367395 52.1818069,30.0549525 52.1818069,27.986352 C52.1818069,25.9177515 50.6036653,24.3359645 48.5401604,24.3359645 Z M48.5401604,29.2031003 C47.8118311,29.2031003 47.3263257,28.7164295 47.3263257,27.986352 C47.3263257,27.2562745 47.8118311,26.7696037 48.5401604,26.7696037 C49.2684897,26.7696037 49.7539952,27.2562745 49.7539952,27.986352 C49.7539952,28.7164295 49.2684897,29.2031003 48.5401604,29.2031003 Z" id="Shape" fill="#FD2500" fill-rule="nonzero"></path>
                        <path d="M48.5401604,14.6015502 C46.4765133,14.6015502 44.8985139,16.1833372 44.8985139,18.2519377 C44.8985139,20.3205382 46.4765133,21.9023252 48.5401604,21.9023252 C50.6038075,21.9023252 52.1818069,20.3205382 52.1818069,18.2519377 C52.1818069,16.1833372 50.6036653,14.6015502 48.5401604,14.6015502 Z M48.5401604,19.468686 C47.8118311,19.468686 47.3263257,18.9820152 47.3263257,18.2519377 C47.3263257,17.5218602 47.8118311,17.0351894 48.5401604,17.0351894 C49.2684897,17.0351894 49.7539952,17.5218602 49.7539952,18.2519377 C49.7539952,18.9820152 49.2684897,19.468686 48.5401604,19.468686 Z" id="Shape" fill="#FD2500" fill-rule="nonzero"></path>
                        <path d="M29.117951,34.0702362 C27.0543039,34.0702362 25.4763045,35.6520232 25.4763045,37.7206237 C25.4763045,39.7892242 27.0543039,41.3710112 29.117951,41.3710112 C31.1815981,41.3710112 32.7595975,39.7892242 32.7595975,37.7206237 C32.7595975,35.6521658 31.1815981,34.0702362 29.117951,34.0702362 Z M29.117951,38.9375146 C28.3896217,38.9375146 27.9041162,38.4508438 27.9041162,37.7207663 C27.9041162,36.9906888 28.3896217,36.504018 29.117951,36.504018 C29.8462803,36.504018 30.3317857,36.9906888 30.3317857,37.7207663 C30.3317857,38.4508438 29.8462803,38.9375146 29.117951,38.9375146 Z" id="Shape" fill="#FD2500" fill-rule="nonzero"></path>
                        <path d="M38.8290557,34.0702362 C36.7654086,34.0702362 35.1874092,35.6520232 35.1874092,37.7206237 C35.1874092,39.7892242 36.7654086,41.3710112 38.8290557,41.3710112 C40.8927028,41.3710112 42.4707022,39.7892242 42.4707022,37.7206237 C42.4707022,35.6521658 40.8927028,34.0702362 38.8290557,34.0702362 Z M38.8290557,38.9375146 C38.1007264,38.9375146 37.6152209,38.4508438 37.6152209,37.7207663 C37.6152209,36.9906888 38.1007264,36.5038754 38.8290557,36.5038754 C39.557385,36.5038754 40.0428904,36.9905462 40.0428904,37.7206237 C40.0428904,38.4507012 39.557385,38.9375146 38.8290557,38.9375146 Z" id="Shape" fill="#FD2500" fill-rule="nonzero"></path>
                        <path d="M38.8290557,47.455038 C36.7654086,47.455038 35.1874092,49.0368251 35.1874092,51.1054255 C35.1874092,53.174026 36.7654086,54.7558131 38.8290557,54.7558131 C40.8927028,54.7558131 42.4707022,53.174026 42.4707022,51.1054255 C42.4707022,49.0368251 40.8927028,47.455038 38.8290557,47.455038 Z M38.8290557,52.3221739 C38.1007264,52.3221739 37.6152209,51.835503 37.6152209,51.1054255 C37.6152209,50.375348 38.1007264,49.8886772 38.8290557,49.8886772 C39.557385,49.8886772 40.0428904,50.375348 40.0428904,51.1054255 C40.0428904,51.835503 39.557385,52.3221739 38.8290557,52.3221739 Z" id="Shape" fill="#FD2500" fill-rule="nonzero"></path>
                        <path d="M48.5401604,34.0702362 C46.4765133,34.0702362 44.8985139,35.6520232 44.8985139,37.7206237 C44.8985139,39.7892242 46.4765133,41.3710112 48.5401604,41.3710112 C50.6038075,41.3710112 52.1818069,39.7892242 52.1818069,37.7206237 C52.1818069,35.6521658 50.6036653,34.0702362 48.5401604,34.0702362 Z M48.5401604,38.9375146 C47.8118311,38.9375146 47.3263257,38.4508438 47.3263257,37.7207663 C47.3263257,36.9906888 47.8118311,36.504018 48.5401604,36.504018 C49.2684897,36.504018 49.7539952,36.9906888 49.7539952,37.7207663 C49.7539952,38.4508438 49.2684897,38.9375146 48.5401604,38.9375146 Z" id="Shape" fill="#FD2500" fill-rule="nonzero"></path>
                        <path d="M77.0663438,21.7284497 C75.0026967,21.7284497 73.4246973,20.1466627 73.4246973,18.0780622 C73.4246973,16.4962751 70.9968856,16.4962751 70.9968856,18.0780622 C70.9968856,20.1466627 69.4188862,21.7284497 67.3552391,21.7284497 C65.7772397,21.7284497 65.7772397,24.1620889 67.3552391,24.1620889 C69.4188862,24.1620889 70.9968856,25.743876 70.9968856,27.8124765 C70.9968856,29.3942636 73.4246973,29.3942636 73.4246973,27.8124765 C73.4246973,25.743876 75.0026967,24.1620889 77.0663438,24.1620889 C78.6443432,24.1620889 78.6443432,21.7284497 77.0663438,21.7284497 Z M72.2108626,24.1620889 C71.8466979,23.6754181 71.4825333,23.3103794 70.9970278,22.9453406 C71.4825333,22.5803019 71.8466979,22.2152631 72.2108626,21.7285923 C72.5750272,22.2152631 72.9391919,22.5803019 73.4246973,22.9453406 C72.9391919,23.3103794 72.5750272,23.6754181 72.2108626,24.1620889 Z" id="Shape" fill="#FD2500" fill-rule="nonzero"></path>
                        <path d="M4.23341404,9.0059923 C3.50508475,9.0059923 3.0195793,9.4926631 3.0195793,10.2227406 L3.0195793,15.0898765 C3.0195793,15.819954 3.50508475,16.3066248 4.23341404,16.3066248 C4.96174334,16.3066248 5.44724879,15.819954 5.44724879,15.0898765 L5.44724879,10.2227406 C5.44724879,9.4926631 4.96174334,9.0059923 4.23341404,9.0059923 Z" id="Shape" fill="#FD2500" fill-rule="nonzero"></path>
                        <path d="M6.66122579,11.4394889 L1.80574455,11.4394889 C1.07741525,11.4394889 0.591909806,11.9261597 0.591909806,12.6562372 C0.591909806,13.3863148 1.07741525,13.8729856 1.80574455,13.8729856 L6.66122579,13.8729856 C7.38955508,13.8729856 7.87506053,13.3863148 7.87506053,12.6562372 C7.87506053,11.9263023 7.38955508,11.4394889 6.66122579,11.4394889 Z" id="Shape" fill="#FD2500" fill-rule="nonzero"></path>
                        <path d="M10.9097185,52.3221739 C10.1813892,52.3221739 9.69588378,52.8088447 9.69588378,53.5389222 C9.69588378,54.2689997 10.1813892,54.7558131 10.9097185,54.7558131 C11.6380478,54.7558131 12.1235533,54.2691423 12.1235533,53.5390648 C12.1235533,52.8089873 11.6380478,52.3221739 10.9097185,52.3221739 Z" id="Shape" fill="#FD2500" fill-rule="nonzero"></path>
                        <path d="M4.84040254,30.4198486 C4.11207324,30.4198486 3.6265678,30.9065194 3.6265678,31.6365969 C3.6265678,32.3666744 4.11207324,32.8533453 4.84040254,32.8533453 C5.56873184,32.8533453 6.05423729,32.3666744 6.05423729,31.6365969 C6.05423729,30.9065194 5.56873184,30.4198486 4.84040254,30.4198486 Z" id="Shape" fill="#FD2500" fill-rule="nonzero"></path>
                        <path d="M64.3205811,42.5879021 C63.5922518,42.5879021 63.1067464,43.074573 63.1067464,43.8046505 C63.1067464,44.534728 63.5922518,45.0213988 64.3205811,45.0213988 C65.0489104,45.0213988 65.5344159,44.534728 65.5344159,43.8046505 C65.5344159,43.074573 65.0489104,42.5879021 64.3205811,42.5879021 Z" id="Shape" fill="#FD2500" fill-rule="nonzero"></path>
                        <path d="M72.8177088,68.1406149 C72.0893795,68.1406149 71.6038741,68.6272857 71.6038741,69.3573632 C71.6038741,70.0874407 72.0893795,70.5741115 72.8177088,70.5741115 C73.5460381,70.5741115 74.0315436,70.0874407 74.0315436,69.3573632 C74.0315436,68.6272857 73.5460381,68.1406149 72.8177088,68.1406149 Z" id="Shape" fill="#FD2500" fill-rule="nonzero"></path>
                    </g>
                </g>
            </g>
        </g>
    </g>
</svg>