<svg height="90" viewBox="0 0 90 90" width="90" xmlns="http://www.w3.org/2000/svg"><g fill="none" transform="translate(-10 -15)"><path d="m44.7504274 110c18.3827458 0 52.2495726-19.4585917 52.2495726-43.5524608s-14.1356857-53.4475392-32.5184314-53.4475392c-18.3827458 0-46.4815686 17.5076438-46.4815686 41.6015129 0 24.093869 8.3676817 55.3984871 26.7504274 55.3984871z" fill="#fbf4f3" transform="matrix(.89879405 .43837115 -.43837115 .89879405 32.779168 -18.982175)"/><g fill="#fd2500"><path d="m68.1763708 23h-31.352883c-2.6528971 0-4.8234878 2.1900043-4.8234878 4.8666286v63.2667428c0 2.6766243 2.1705907 4.8666286 4.8234878 4.8666286h31.3530244c2.6528971 0 4.8234878-2.1900043 4.8234878-4.8666286v-63.2667428c0-2.6766243-2.1705907-4.8666286-4.8236292-4.8666286zm2.4118146 68.1335139c0 1.3383835-1.0852953 2.4333856-2.4118146 2.4333856h-31.352883c-1.3265192 0-2.4118145-1.0950021-2.4118145-2.4333856v-63.2668853c0-1.3383834 1.0852953-2.4333856 2.4118145-2.4333856h31.3530244c1.3265192 0 2.4118145 1.0950022 2.4118145 2.4333856v63.2668853z"/><path d="m32 30v56h41v-56zm38.5883267 53.5653104h-36.1765121v-51.1304782h36.1765121z"/><path d="m57.7143287 27h-6.4286575c-.7714328 0-1.2856712.3999766-1.2856712 1s.5142384 1 1.2856712 1h6.4286575c.7714329 0 1.2856713-.3999766 1.2856713-1 .0001506-.6000234-.5142384-1-1.2856713-1z"/><path d="m47.6666667 27h-1.3333334c-.8000312 0-1.3333333.3999766-1.3333333 1s.5333021 1 1.3333333 1h1.3333334c.8000312 0 1.3333333-.3999766 1.3333333-1s-.5333021-1-1.3333333-1z"/><path d="m32 34c-.6000234 0-1 .5333021-1 1.3333333v1.3333334c0 .8000312.3999766 1.3333333 1 1.3333333s1-.5333021 1-1.3333333v-1.3333334c.0001172-.8000312-.3999766-1.3333333-1-1.3333333z"/><path d="m32 39c-.6000234 0-1 .5332813-1 1.3332812v1.3334376c0 .8.3999766 1.3332812 1 1.3332812s1-.5332813 1-1.3332812v-1.3332813c.0001172-.8-.3999766-1.3334375-1-1.3334375z"/><path d="m32 44c-.6000234 0-1 .5333021-1 1.3333333v1.3333334c0 .8000312.3999766 1.3333333 1 1.3333333s1-.5333021 1-1.3333333v-1.3333334c.0001172-.8000312-.3999766-1.3333333-1-1.3333333z"/><path d="m53 85c-2.749978 0-5 2.250022-5 5s2.250022 5 5 5 5-2.250022 5-5-2.250022-5-5-5zm0 7.5000732c-1.3750623 0-2.5000732-1.1250109-2.5000732-2.5000732s1.1250109-2.5000732 2.5000732-2.5000732 2.5000732 1.1250109 2.5000732 2.5000732-1.1250109 2.5000732-2.5000732 2.5000732z"/><path d="m26.8241536 27.7939439c-2.0503024 0-3.6180975-1.5677951-3.6180975-3.6180975 0-1.5677952-2.4121122-1.5677952-2.4121122 0 0 2.0503024-1.5677951 3.6180975-3.6180975 3.6180975-1.5677952 0-1.5677952 2.4121122 0 2.4121122 2.0503024 0 3.6180975 1.5677951 3.6180975 3.6180975 0 1.5677952 2.4121122 1.5677952 2.4121122 0 0-2.0503024 1.5677951-3.6180975 3.6180975-3.6180975 1.5677952 0 1.5677952-2.4121122 0-2.4121122zm-4.8240829 2.4121122c-.3618098-.4823659-.7236195-.8441757-1.2059854-1.2059854.4823659-.3618098.8441756-.7236195 1.2059854-1.2059854.3618097.4823659.7236195.8441756 1.2059854 1.2059854-.4823659.3618097-.8441757.7236195-1.2059854 1.2059854z"/><path d="m82 40c-.6000234 0-1 .4666302-1 1.1666439v4.6667122c0 .7000137.3999766 1.1666439 1 1.1666439s1-.4666302 1-1.1666439v-4.6667122c0-.7000137-.3999766-1.1666439-1-1.1666439z"/><path d="m83.8333561 42h-4.6667122c-.7000137 0-1.1666439.3999766-1.1666439 1s.4666302 1 1.1666439 1h4.6667122c.7000137 0 1.1666439-.3999766 1.1666439-1 0-.5999062-.4666302-1-1.1666439-1z"/><path d="m24 75c-.6000234 0-1 .3999531-1 .9999414s.3999766 1.0000586 1 1.0000586 1-.3999531 1-.9999414-.3999766-1.0000586-1-1.0000586z"/><path d="m18 53c-.6000234 0-1 .3999766-1 1s.3999766 1 1 1 1-.3999766 1-1-.3999766-1-1-1z"/><path d="m78 65c-.6000234 0-1 .3999766-1 1s.3999766 1 1 1 1-.3999766 1-1-.3999766-1-1-1z"/><path d="m86 91c-.6000234 0-1 .3999766-1 1s.3999766 1 1 1 1-.3999766 1-1-.3999766-1-1-1z"/><path d="m61.9930692 47.1430398c-.0003014-.0023863-.0009041-.0047726-.0010547-.0073081-.0042188-.0389266-.010095-.077704-.0179298-.1161832-.0034654-.0173007-.0085882-.0338557-.012807-.0508581-.0058762-.0234156-.010999-.0468312-.0182311-.0700977-.0061775-.019687-.0138617-.0386283-.0209432-.058017-.0072322-.019687-.0135604-.0396723-.0218473-.059061-.0093415-.0222225-.0204911-.0434009-.0310381-.0648777-.0078348-.0158093-.014615-.0319168-.0232032-.0475769-.0183818-.0337066-.0385717-.0663691-.0599669-.0982859-.0019587-.0028338-.0034654-.0058167-.0054241-.0087995-.0239566-.035198-.0497213-.0690537-.0771433-.1015671-.0006027-.0007457-.0012054-.0016406-.0018081-.0023863-.0079855-.0093961-.0168751-.017599-.0250113-.0268459-.0191351-.0213276-.0381196-.0428044-.0586108-.0629388-.0152177-.0150636-.0314901-.0284865-.0473105-.0426552-.0150671-.013423-.0298328-.0271442-.0455025-.0399706-.0185325-.0149144-.0378183-.0283374-.0569534-.0422078-.0146151-.01044-.0287781-.0214767-.0438451-.0313202-.0194365-.0126772-.039325-.0240122-.0593642-.0356454-.0162724-.0095452-.0323942-.0193887-.0491186-.0281882-.0186831-.0098435-.037969-.0183448-.0569534-.0271443-.0191352-.0089486-.037969-.0180464-.0577068-.025951-.0176285-.0071589-.0355583-.0129755-.0533374-.0193887-.0216965-.0077555-.0433931-.0156602-.0655416-.0222225-.0171765-.0050709-.0348049-.0089486-.052132-.0132738-.0230526-.0058166-.0459545-.0119315-.0694591-.0164059-.0197379-.0038777-.039777-.0061149-.0596655-.0089486-.0212446-.003132-.0421878-.0067115-.0637337-.0087995-.028778-.0026846-.0575561-.0034303-.0864848-.0043252-.012355-.0002983-.024258-.0017897-.0366129-.0017897h-.0064789c-.0003013 0-.000452 0-.0007533 0h-15.4144945c-.0003014 0-.000452 0-.0007534 0h-.0064788c-.012355 0-.0244086.0014914-.0366129.0017897-.0289288.0008949-.0577068.0016406-.0864849.0043252-.0215459.002088-.0424891.0056675-.0637336.0087995-.0198885.0028337-.0399277.00522-.0596655.0089486-.0235046.0044744-.0464065.0105893-.0694591.0164059-.0174778.0043252-.0349556.0082029-.052132.0132738-.0222992.0065623-.0438451.014467-.0655417.0222225-.0177791.006264-.0358595.0122298-.0533373.0193887-.0195872.0079046-.0385717.0171515-.0577068.025951-.0191352.0087995-.0382703.0174499-.0569534.0271443-.0167245.0087995-.0328462.018643-.0491186.0281882-.0198885.0116332-.0399277.0229682-.0593642.0356454-.015067.0098435-.0292301.0208802-.0438451.0313202-.0191352.0137213-.038421.0272934-.0569534.0422078-.0156698.0126772-.0304355.0265476-.0455025.0399706-.0158204.0141687-.0320928.0275916-.0473106.0426552-.0204912.0201344-.0394756.041462-.0586108.0629388-.0081362.0090977-.0170257.0173007-.0250113.0268459-.0006027.0007457-.0012053.0016406-.001808.0023863-.0272714.0325134-.0531867.0663691-.0771433.1015671-.0019587.0028337-.0034654.0058166-.0054242.0087995-.0213952.0319168-.041585.0644302-.0599668.0982859-.0084376.015511-.0153684.0317676-.0232033.0475769-.0105469.0214768-.0216965.0426552-.0310381.0648777-.0082869.0193887-.014615.039374-.0218472.059061-.0070815.0193887-.0149164.03833-.0209432.058017-.0072322.0231173-.012355.0466821-.0182311.0700977-.0042188.0170024-.0093416.0335574-.012807.0508581-.0078349.0384792-.013711.0772566-.0179298.1161832-.0003013.0023863-.000904.0047726-.0010547.0073081-.0043694.0422077-.0064788.0847138-.0064788.1270707 0 .001044-.0001507.0019388-.0001507.0029829v11.4542607c0 .7029157.5755612 1.2726459 1.2856712 1.2726459h15.4286576c.71011 0 1.2856712-.5697302 1.2856712-1.2726459v-11.4542607c0-.0010441-.0001507-.0019389-.0001507-.0029829-.0003013-.0425061-.0024107-.084863-.0067801-.1270707zm-4.8301944 1.4025503-4.1631761 3.4341902-4.1630255-3.434041h8.3262016zm-10.5918337 8.9089689v-7.4643599l5.6055447 4.6239121c.4768721.3932927 1.1693536.3932927 1.6462257 0l5.6055447-4.6239121v7.4643599z"/></g></g></svg>