<?xml version="1.0" encoding="UTF-8"?>
<svg width="90px" height="90px" viewBox="0 0 90 90" version="1.1" xmlns="http://www.w3.org/2000/svg" xmlns:xlink="http://www.w3.org/1999/xlink">
    <!-- Generator: Sketch 51.2 (57519) - http://www.bohemiancoding.com/sketch -->
    <title>026-message-on-phone</title>
    <desc>Created with Sketch.</desc>
    <defs>
        <rect id="path-1" x="0" y="0" width="90" height="90"></rect>
    </defs>
    <g id="026-message-on-phone" stroke="none" stroke-width="1" fill="none" fill-rule="evenodd">
        <g id="ussd">
            <mask id="mask-2" fill="white">
                <use xlink:href="#path-1"></use>
            </mask>
            <g id="Mask" fill-rule="nonzero"></g>
            <g mask="url(#mask-2)">
                <g transform="translate(-16.000000, -16.000000)">
                    <path d="M51.2135668,108.95319 C69.1619948,108.95319 98.8357957,91.7189576 98.8357957,67.5558178 C98.8357957,43.392678 85.0340852,13.9546151 67.0856573,13.9546151 C49.1372293,13.9546151 21.7022801,31.512594 21.7022801,55.6757338 C21.7022801,79.8388735 33.2651389,108.95319 51.2135668,108.95319 Z" id="Oval-2-Copy" fill="#FBF4F3" fill-rule="nonzero" transform="translate(60.269038, 61.453902) rotate(-139.000000) translate(-60.269038, -61.453902) "></path>
                    <g id="Group" stroke-width="1" fill="none" fill-rule="evenodd" transform="translate(25.000000, 25.000000)">
                        <g id="009-smartphone-7" fill="#FD2500" fill-rule="nonzero">
                            <path d="M53.241854,0 L21.546713,0 C18.864856,0 16.6705704,2.18226791 16.6705704,4.84943689 L16.6705704,67.8926847 C16.6705704,70.5598537 18.864856,72.7421216 21.546713,72.7421216 L53.2419968,72.7421216 C55.9238538,72.7421216 58.1181394,70.5598537 58.1181394,67.8926847 L58.1181394,4.84943689 C58.1181394,2.18226791 55.9238538,0 53.241854,0 Z M55.6799967,67.8928268 C55.6799967,69.2264823 54.5828539,70.3176163 53.241854,70.3176163 L21.546713,70.3176163 C20.2057131,70.3176163 19.1085703,69.2264823 19.1085703,67.8928268 L19.1085703,4.84943689 C19.1085703,3.51578136 20.2057131,2.42464741 21.546713,2.42464741 L53.2419968,2.42464741 C54.5829967,2.42464741 55.6801395,3.51578136 55.6801395,4.84943689 L55.6801395,67.8928268 L55.6799967,67.8928268 Z" id="Shape"></path>
                            <path d="M16.6704276,7.27422637 L16.6704276,63.0432479 L58.1179965,63.0432479 L58.1179965,7.27422637 L16.6704276,7.27422637 Z M55.6799967,60.6186004 L19.1085703,60.6186004 L19.1085703,9.69901585 L55.6799967,9.69901585 L55.6799967,60.6186004 Z" id="Shape"></path>
                            <path d="M42.2704261,3.63711319 L36.1751407,3.63711319 C35.4437122,3.63711319 34.9561408,4.12201425 34.9561408,4.84943689 C34.9561408,5.57685953 35.4437122,6.06176059 36.1751407,6.06176059 L42.2704261,6.06176059 C43.0018546,6.06176059 43.489426,5.57685953 43.489426,4.84943689 C43.4895688,4.12201425 43.0018546,3.63711319 42.2704261,3.63711319 Z" id="Shape"></path>
                            <path d="M32.5181409,3.63711319 L31.299141,3.63711319 C30.5677125,3.63711319 30.0801411,4.12201425 30.0801411,4.84943689 C30.0801411,5.57685953 30.5677125,6.06176059 31.299141,6.06176059 L32.5181409,6.06176059 C33.2495694,6.06176059 33.7371408,5.57685953 33.7371408,4.84943689 C33.7371408,4.12201425 33.2495694,3.63711319 32.5181409,3.63711319 Z" id="Shape"></path>
                            <path d="M16.6704276,10.9113396 C15.938999,10.9113396 15.4514277,11.3962406 15.4514277,12.1236633 L15.4514277,13.335987 C15.4514277,14.0634096 15.938999,14.5483107 16.6704276,14.5483107 C17.4018561,14.5483107 17.8894275,14.0634096 17.8894275,13.335987 L17.8894275,12.1236633 C17.8895704,11.3962406 17.4018561,10.9113396 16.6704276,10.9113396 Z" id="Shape"></path>
                            <path d="M16.6704276,15.7607764 C15.938999,15.7607764 15.4514277,16.2456775 15.4514277,16.9731001 L15.4514277,18.1855659 C15.4514277,18.9129886 15.938999,19.3978896 16.6704276,19.3978896 C17.4018561,19.3978896 17.8894275,18.9129886 17.8894275,18.1855659 L17.8894275,16.9732422 C17.8895704,16.2458196 17.4018561,15.7607764 16.6704276,15.7607764 Z" id="Shape"></path>
                            <path d="M16.6704276,20.6103554 C15.938999,20.6103554 15.4514277,21.0952565 15.4514277,21.8226791 L15.4514277,23.0350028 C15.4514277,23.7624255 15.938999,24.2473265 16.6704276,24.2473265 C17.4018561,24.2473265 17.8894275,23.7624255 17.8894275,23.0350028 L17.8894275,21.8226791 C17.8895704,21.0952565 17.4018561,20.6103554 16.6704276,20.6103554 Z" id="Shape"></path>
                            <path d="M40.6857119,28.2482931 C40.1981405,27.763392 39.4667119,27.763392 38.9789977,28.2482931 L34.1028551,33.09773 C33.6152837,33.5826311 33.6152837,34.3100537 34.1028551,34.7950968 C34.5904265,35.28014 35.321855,35.2799979 35.8095693,34.7950968 L40.6857119,29.9456599 C41.1732833,29.4606168 41.1732833,28.7331942 40.6857119,28.2482931 Z" id="Shape"></path>
                            <path d="M40.6857119,33.09773 L35.8095693,28.2482931 C35.3219979,27.763392 34.5905694,27.763392 34.1028551,28.2482931 C33.6152837,28.7331942 33.6152837,29.4606168 34.1028551,29.9456599 L38.9789977,34.7950968 C39.4665691,35.2799979 40.1979976,35.2799979 40.6857119,34.7950968 C41.1732833,34.3100537 41.1732833,33.5826311 40.6857119,33.09773 Z" id="Shape"></path>
                            <path d="M30.9332839,28.2482931 C30.4457125,27.763392 29.7142839,27.763392 29.2265697,28.2482931 L24.3504271,33.09773 C23.8628557,33.5826311 23.8628557,34.3100537 24.3504271,34.7950968 C24.8379985,35.28014 25.569427,35.2799979 26.0571413,34.7950968 L30.9332839,29.9456599 C31.4209981,29.4606168 31.4209981,28.7331942 30.9332839,28.2482931 Z" id="Shape"></path>
                            <path d="M30.9332839,33.09773 L26.0571413,28.2482931 C25.5695699,27.763392 24.8381414,27.763392 24.3504271,28.2482931 C23.8627129,28.7331942 23.8628557,29.4606168 24.3504271,29.9456599 L29.2265697,34.7950968 C29.7141411,35.2799979 30.4455696,35.2799979 30.9332839,34.7950968 C31.4209981,34.3101958 31.4209981,33.5826311 30.9332839,33.09773 Z" id="Shape"></path>
                            <path d="M50.4381399,28.2482931 C49.9505685,27.763392 49.2191399,27.763392 48.7314257,28.2482931 L43.8552831,33.09773 C43.3677117,33.5826311 43.3677117,34.3100537 43.8552831,34.7950968 C44.3428545,35.2799979 45.074283,35.2799979 45.5619973,34.7950968 L50.4381399,29.9456599 C50.9257113,29.4606168 50.9257113,28.7331942 50.4381399,28.2482931 Z" id="Shape"></path>
                            <path d="M50.4381399,33.09773 L45.5619973,28.2482931 C45.0744259,27.763392 44.3429974,27.763392 43.8552831,28.2482931 C43.3675688,28.7331942 43.3677117,29.4606168 43.8552831,29.9456599 L48.7314257,34.7950968 C49.2189971,35.2799979 49.9504256,35.2799979 50.4381399,34.7950968 C50.9257113,34.3100537 50.9257113,33.5826311 50.4381399,33.09773 Z" id="Shape"></path>
                            <path d="M49.5847113,38.7959213 L25.2038556,38.7959213 C24.4724271,38.7959213 23.9848557,39.2808224 23.9848557,40.008245 C23.9848557,40.7356677 24.4724271,41.2205687 25.2038556,41.2205687 L49.5848542,41.2205687 C50.3162827,41.2205687 50.8038541,40.7356677 50.8038541,40.008245 C50.8038541,39.2808224 50.3161399,38.7959213 49.5847113,38.7959213 Z" id="Shape"></path>
                            <path d="M11.794285,52.849434 C9.72185656,52.849434 8.13714237,51.273399 8.13714237,49.2123208 C8.13714237,47.6362858 5.69899966,47.6362858 5.69899966,49.2123208 C5.69899966,51.273399 4.11428547,52.849434 2.04185702,52.849434 C0.45714283,52.849434 0.45714283,55.2742235 2.04185702,55.2742235 C4.11428547,55.2742235 5.69899966,56.8502585 5.69899966,58.9113367 C5.69899966,60.4873717 8.13714237,60.4873717 8.13714237,58.9113367 C8.13714237,56.8502585 9.72185656,55.2742235 11.794285,55.2742235 C13.3789992,55.2742235 13.3789992,52.849434 11.794285,52.849434 Z M6.91814244,55.2742235 C6.55242818,54.7893224 6.18671392,54.4256111 5.69914252,54.0618998 C6.18671392,53.6981885 6.55242818,53.3344772 6.91814244,52.8495761 C7.28385671,53.3344772 7.64957097,53.6981885 8.13714237,54.0618998 C7.64957097,54.4256111 7.28385671,54.7893224 6.91814244,55.2742235 Z" id="Shape"></path>
                            <path d="M66.6514246,16.9732422 C65.9199961,16.9732422 65.4324247,17.4581433 65.4324247,18.1855659 L65.4324247,23.0350028 C65.4324247,23.7624255 65.9199961,24.2473265 66.6514246,24.2473265 C67.3828531,24.2473265 67.8704245,23.7624255 67.8704245,23.0350028 L67.8704245,18.1855659 C67.8704245,17.4581433 67.3828531,16.9732422 66.6514246,16.9732422 Z" id="Shape"></path>
                            <path d="M69.0895673,19.3978896 L64.2134247,19.3978896 C63.4819962,19.3978896 62.9944248,19.8827907 62.9944248,20.6102133 C62.9944248,21.337636 63.4819962,21.822537 64.2134247,21.822537 L69.0895673,21.822537 C69.8209958,21.822537 70.3085672,21.337636 70.3085672,20.6102133 C70.3085672,19.8829328 69.8209958,19.3978896 69.0895673,19.3978896 Z" id="Shape"></path>
                            <path d="M1.35614278,4.13191116 C0.624714248,4.13191116 0.137142849,4.61681222 0.137142849,5.34423486 C0.137142849,6.0716575 0.624714248,6.55670064 1.35614278,6.55670064 C2.0875713,6.55670064 2.5751427,6.07179957 2.5751427,5.34437694 C2.5751427,4.6169543 2.0875713,4.13191116 1.35614278,4.13191116 Z" id="Shape"></path>
                            <path d="M8.06099952,30.3092292 C7.32957099,30.3092292 6.84199959,30.7941303 6.84199959,31.5215529 C6.84199959,32.2489755 7.32957099,32.7338766 8.06099952,32.7338766 C8.79242805,32.7338766 9.27999945,32.2489755 9.27999945,31.5215529 C9.27999945,30.7941303 8.79242805,30.3092292 8.06099952,30.3092292 Z" id="Shape"></path>
                            <path d="M62.994282,42.4330345 C62.2628534,42.4330345 61.775282,42.9179356 61.775282,43.6453582 C61.775282,44.3727809 62.2628534,44.8576819 62.994282,44.8576819 C63.7257105,44.8576819 64.2132819,44.3727809 64.2132819,43.6453582 C64.2132819,42.9179356 63.7257105,42.4330345 62.994282,42.4330345 Z" id="Shape"></path>
                            <path d="M38.2811492,66.0618517 L35.5617032,66.0618517 C34.8107364,66.0618517 34.2020598,66.4876168 34.2020598,67.0129129 C34.2020598,67.5382089 34.8107364,67.9639741 35.5617032,67.9639741 L38.2811492,67.9639741 C39.0321159,67.9639741 39.6407925,67.5382089 39.6407925,67.0129129 C39.6407925,66.4876168 39.0321159,66.0618517 38.2811492,66.0618517 Z" id="Shape"></path>
                        </g>
                        <text id="USSD" font-family="Eina03-Bold" font-size="10.3999994" font-weight="bold" fill="#FD2500">
                            <tspan x="23.1999986" y="23.1999991">USSD</tspan>
                        </text>
                    </g>
                </g>
            </g>
        </g>
    </g>
</svg>