<svg height="99" viewBox="0 0 114 99" width="114" xmlns="http://www.w3.org/2000/svg"><g fill="none" transform="translate(-15 -21)"><path d="m58.2378349 128.038418c21.8731406 0 62.1703771-22.668257 62.1703771-50.7363721 0-28.0681155-16.819676-62.2636281-38.6928167-62.2636281-21.8731406 0-55.3071829 20.3955025-55.3071829 48.4636181 0 28.0681155 9.956482 64.5363821 31.8296225 64.5363821z" fill="#fbf4f3" transform="matrix(.60181502 .79863551 -.79863551 .60181502 86.363168 -30.140882)"/><g fill="#fd2500" transform="translate(39 43)"><path d="m64.4179688 30.8051525v-.6992542c0-7.0855593-2.5046192-13.9727458-7.0522852-19.3928136-4.4929512-5.35457623-10.7141367-8.98657623-17.5177793-10.2271186-.7329902-.13342373-1.4337715.35566102-1.5663809 1.09247458-.1326093.73694915.3533555 1.44244068 1.0858067 1.576 12.9535371 2.36176271 22.3553261 13.69640682 22.3553261 26.95145762v.4078644h-2.6953124v-.4078644c0-13.6074576-11.0029395-24.6779661-24.5273438-24.6779661s-24.52734375 11.0705085-24.52734375 24.6779661v.4067797h-2.6953125v-.4067797c0-13.4271186 9.54423635-24.78698305 22.69426175-27.01098305.7339336-.12420339 1.2289277-.82345762 1.1054824-1.56203389-.1234453-.73844068-.817084-1.23715255-1.5525-1.11240678-6.8894883 1.16528813-13.2013711 4.77111864-17.7728906 10.15335592-4.62326957 5.4435254-7.16966605 12.3802034-7.16966605 19.5320678v.6981695c-2.65097461.8260339-4.58203125 3.315661-4.58203125 6.2507119v9.1530847c0 3.607322 2.91686719 6.5421017 6.50217187 6.5421017h3.78327543c.7090019 1.1777627 1.9949355 1.9666441 3.4605117 1.9666441 2.229293 0 4.0429687-1.8248136 4.0429687-4.0677966v-18.0338983c0-2.2429831-1.8136757-4.0677967-4.0429687-4.0677967-.3563203 0-.7017246.0470509-1.030957.1345085.7321816-11.4507118 10.2223769-20.54183049 21.784998-20.54183049s21.0528164 9.09111869 21.7848633 20.54183049c-.3293672-.0874576-.6747715-.1345085-1.0309571-.1345085-2.2292929 0-4.0429687 1.8248136-4.0429687 4.0677967v3.3850847c0 .7487458.6034805 1.3559322 1.3476563 1.3559322.7441757 0 1.3476562-.6071864 1.3476562-1.3559322v-3.3850847c0-.7476611.6045586-1.3559322 1.3476562-1.3559322.7430977 0 1.3476563.6082711 1.3476563 1.3559322v17.5587796.4751187c0 .747661-.6045586 1.3559322-1.3476563 1.3559322-.7430976 0-1.3476562-.6082712-1.3476562-1.3559322v-3.1233899c0-.7487457-.6034805-1.3559322-1.3476562-1.3559322-.7441758 0-1.3476563.6071865-1.3476563 1.3559322v3.1233899c0 2.242983 1.8136758 4.0677966 4.0429687 4.0677966.4724883 0 .9258399-.0827119 1.3476563-.2332204v.8837966c0 1.4680678-1.1871504 2.6625085-2.6462578 2.6625085h-12.3633985c-.5767968-1.8824407-2.3217421-3.2542373-4.3794785-3.2542373h-5.390625c-2.5265859 0-4.5820312 2.0680678-4.5820312 4.6101695s2.0554453 4.6101695 4.5820312 4.6101695h5.390625c2.0577364 0 3.8026817-1.3717966 4.3794785-3.2542373h12.3633985c2.9453027 0 5.3415703-2.4108474 5.3415703-5.3743729v-2.6161356h3.2009531c3.5853047 0 6.5021719-2.9347796 6.5021719-6.5421016v-9.1530848c0-2.9350508-1.9310566-5.424678-4.5820312-6.2507119zm-54.7148438 19.2329492h-3.20095313c-2.09910937 0-3.80685937-1.7182373-3.80685937-3.8302373v-9.1530847c0-2.112 1.70775-3.8302373 3.80685937-3.8302373h3.20095313zm4.0429688-18.7791186c.7430976 0 1.3476562.6082711 1.3476562 1.3559322v18.0338983c0 .747661-.6045586 1.3559322-1.3476562 1.3559322-.7430977 0-1.3476563-.6082712-1.3476563-1.3559322v-18.0338983c0-.7476611.6045586-1.3559322 1.3476563-1.3559322zm23.4663339 30.0249491h-5.390625c-1.0403906 0-1.8867187-.8515254-1.8867187-1.8983051 0-1.0467796.8463281-1.8983051 1.8867187-1.8983051h5.390625c1.0403907 0 1.8867188.8515255 1.8867188 1.8983051 0 1.0467797-.8463281 1.8983051-1.8867188 1.8983051zm29.0922598-15.074983c0 2.112-1.70775 3.8302372-3.8068594 3.8302372h-3.2009531v-16.8135593h3.2009531c2.0991094 0 3.8068594 1.7182373 3.8068594 3.8302373z"/><path d="m34.6171113.00433898-.1171113-.00013559c-.7441758 0-1.3476562.60705085-1.3476562 1.3559322 0 .74888136.6034804 1.35593221 1.3476562 1.35593221l.1076777.00013559h.0048516c.7420195 0 1.3448262-.6039322 1.3475215-1.35118644.0026953-.74888136-.5986289-1.3581017-1.3429395-1.36067797z"/><path d="m53.511252 40.6738983c-.2505293-.2522034-.5982247-.3972881-.9526583-.3972881-.3544335 0-.7021289.1449491-.9527929.3972881-.2506641.252339-.3948633.6020339-.3948633.9586441 0 .3566101.1440645.7064407.3948633.9585084.250664.252339.5983594.3974238.9527929.3974238.3544336 0 .702129-.1450848.9526583-.3974238.250664-.2520677.394998-.6018983.394998-.9585084 0-.3566102-.1441992-.7064407-.394998-.9586441z"/><path d="m42.3376992 23.8734915h-15.6753984c-3.4064707 0-6.1779258 2.7884746-6.1779258 6.2158644v7.932339c0 3.4273898 2.7713203 6.216 6.1779258 6.216h3.7316601l3.0436817 3.8215593c.2534941.3182373.635959.5048136 1.041334.5079322h.0103769c.4014668 0 .7823145-.1802033 1.0383692-.491661l3.1552675-3.8378305h3.654709c3.4064707 0 6.1779258-2.7884746 6.1779258-6.216v-7.932339c0-3.4273898-2.7713203-6.2158644-6.1779258-6.2158644zm3.4826133 14.1482034c0 1.9322034-1.5623379 3.5041356-3.4826133 3.5041356h-4.288916c-.4016016 0-.7824492.1802034-1.0383691.491661l-2.5044844 3.0462373-2.4132481-3.0299661c-.2557851-.3210847-.6426972-.5079322-1.0517109-.5079322h-4.3786699c-1.9202754 0-3.4826133-1.5719322-3.4826133-3.5041356v-7.932339c0-1.9322034 1.5623379-3.504 3.4826133-3.504h15.6753984c1.9202754 0 3.4826133 1.5719322 3.4826133 3.504z"/><path d="m29.540625 33.7749153c-.2520117-.252339-.5983594-.3972882-.952793-.3972882s-.7021289.1449492-.9527929.3972882c-.2520118.2522033-.3948633.6020339-.3948633.958644 0 .3566102.1428515.7064407.3948633.9585085.250664.2522034.5983593.3974237.9527929.3974237s.7007813-.1450847.952793-.3974237c.2505293-.2520678.3948633-.6018983.3948633-.9585085 0-.3566101-.1441992-.7064407-.3948633-.958644z"/><path d="m35.4703125 33.7749153c-.2506641-.2522034-.5983594-.3972882-.952793-.3972882-.3557812 0-.7021289.1449492-.9527929.3972882-.2520118.2522033-.3948633.6020339-.3948633.958644 0 .3566102.1428515.7064407.3948633.9585085.250664.252339.5970117.3974237.9527929.3974237.3544336 0 .7021289-.1450847.952793-.3974237.2505293-.2520678.3948633-.6018983.3948633-.9585085 0-.3566101-.1441992-.7064407-.3948633-.958644z"/><path d="m41.4 33.7749153c-.2520117-.2522034-.5983594-.3972882-.952793-.3972882-.3557812 0-.7021289.1449492-.9527929.3972882-.2520118.2522033-.3948633.6020339-.3948633.958644 0 .3579661.1428515.7064407.3948633.9585085.250664.252339.5970117.3974237.9527929.3974237.3544336 0 .7007813-.1450847.952793-.3974237.2505293-.2520678.3948633-.6018983.3948633-.9585085 0-.3566101-.1441992-.7064407-.3948633-.958644z"/></g></g></svg>