<svg xmlns="http://www.w3.org/2000/svg" viewBox="0 0 150 150"><defs><style>.cls-1{fill:#fbf4f3;}.cls-2{fill:#fd3b1a;}</style></defs><title>family</title><g id="Layer_1" data-name="Layer 1"><path class="cls-1" d="M94.74,63.51a14.35,14.35,0,0,1-.69,4.36h.38a2.41,2.41,0,0,0,.31-4.81Z"/><path class="cls-1" d="M81.56,41.64a12,12,0,0,1,3,.36,4.84,4.84,0,0,0,.87-2.5H77.73a4.76,4.76,0,0,0,.88,2.5A12,12,0,0,1,81.56,41.64Z"/><path class="cls-1" d="M95.18,58.73V57.1a.92.92,0,0,0-.92-.92H90.12a.92.92,0,0,1,0-1.84h3.12c-1.15-6.2-5.95-10.86-11.68-10.86S71,48.14,69.87,54.34h15.2a.92.92,0,1,1,0,1.84H68.85a.92.92,0,0,0-.92.92v1.63a.93.93,0,0,0,.92.93H94.26A.93.93,0,0,0,95.18,58.73Z"/><path class="cls-1" d="M68.37,63.06a2.42,2.42,0,0,0,.32,4.81h.38a14.06,14.06,0,0,1-.7-4.36Z"/><rect class="cls-1" x="56" y="64.87" width="2.25" height="1.51"/><rect class="cls-1" x="53.66" y="44.73" width="6.91" height="1.17"/><path class="cls-1" d="M62.35,50.58H61.2a.93.93,0,1,1,0-1.85h1.15v-1H51.89v1h4.75a.93.93,0,1,1,0,1.85H51.89v9.35H62.35ZM59.12,56.3H58v1.11a.92.92,0,0,1-1.84,0V56.3H55a.93.93,0,0,1,0-1.85h1.12V53.34a.92.92,0,1,1,1.84,0v1.11h1.12a.93.93,0,0,1,0,1.85Z"/><rect class="cls-1" x="51.89" y="61.78" width="10.46" height="1.25"/><path class="cls-1" d="M71.5,24.94c-24.85,0-44,12.42-44,37s22.15,49,47,49,47-8.42,47-33S96.35,24.94,71.5,24.94ZM100,99a1.63,1.63,0,0,1-1.63,1.63H64.7A1.63,1.63,0,0,1,63.07,99v-4.2H60.81a4.62,4.62,0,0,1-4.61-4.61v-22h-.51a1.54,1.54,0,0,1-1.54-1.54V64.87H51.58A1.54,1.54,0,0,1,50,63.33V47.44a1.54,1.54,0,0,1,1.54-1.54h.24V44.43a1.54,1.54,0,0,1,1.54-1.54h7.53a1.54,1.54,0,0,1,1.53,1.54V45.9h.24a1.54,1.54,0,0,1,1.54,1.54V63.33a1.54,1.54,0,0,1-1.54,1.54H60.09v1.82a1.54,1.54,0,0,1-1.54,1.54H58v22A2.78,2.78,0,0,0,60.81,93h2.26V81a3.77,3.77,0,0,1,3.77-3.77h9.81V76.5a13.47,13.47,0,0,1-4.44-3.22,14.51,14.51,0,0,1-2.41-3.56H68.69a4.26,4.26,0,0,1-.91-8.43,2.78,2.78,0,0,1-1.7-2.56V57.1A2.77,2.77,0,0,1,68,54.48,15.26,15.26,0,0,1,76.8,42.59a6.59,6.59,0,0,1-.93-3.41,1.53,1.53,0,0,1,1.53-1.52h8.32a1.52,1.52,0,0,1,1.52,1.52,6.68,6.68,0,0,1-.92,3.41,15.31,15.31,0,0,1,8.82,11.89A2.76,2.76,0,0,1,97,57.1v1.63a2.78,2.78,0,0,1-1.69,2.56,4.26,4.26,0,0,1-.91,8.43H93.31a14.75,14.75,0,0,1-2.4,3.56,13.4,13.4,0,0,1-4.45,3.22v.71h9.82A3.77,3.77,0,0,1,100,81Z"/><path class="cls-1" d="M93.67,87.67a1.35,1.35,0,0,0-1,.4l-.68.68a.92.92,0,0,1-1.3,0l-.68-.68a1.35,1.35,0,0,0-2.31,1,1.38,1.38,0,0,0,.39,1l3.24,3.23L94.63,90a1.31,1.31,0,0,0,.4-1,1.39,1.39,0,0,0-.4-1A1.35,1.35,0,0,0,93.67,87.67Z"/><path class="cls-1" d="M87.56,96.07H84.7a.91.91,0,0,1-.85-.57.93.93,0,0,1,.2-1l.76-.76a.37.37,0,0,0-.25-.64.41.41,0,0,0-.27.11l-1.51,1.51a1.23,1.23,0,0,1,0,.2v3.91h4.76a.39.39,0,0,0,.38-.38v-2A.39.39,0,0,0,87.56,96.07Z"/><path class="cls-1" d="M96.28,79.06H94.93L93.8,80.48a15.31,15.31,0,0,1-24.49,0l-1.13-1.42H66.84A1.92,1.92,0,0,0,64.92,81v4.46h3.81a2.34,2.34,0,0,1,2.34,2.34v5.5h3.3a.93.93,0,0,1,0,1.85H70.15a.93.93,0,0,1-.92-.93V87.78a.5.5,0,0,0-.5-.49H64.92V98.83H81v-3.7H78.67a.93.93,0,0,1,0-1.85h2.49a1.75,1.75,0,0,1,.4,0L83,91.91a2.22,2.22,0,0,1,1.58-.65,2.16,2.16,0,0,1,1.56.64,2.23,2.23,0,0,1,.52,2.33h.92a2.23,2.23,0,0,1,2.23,2.23v2a2.43,2.43,0,0,1,0,.38H98.2V81A1.93,1.93,0,0,0,96.28,79.06Zm-.35,12.23-3.59,3.57a1.35,1.35,0,0,1-1,.4,1.39,1.39,0,0,1-1-.41l-3.56-3.56a3.2,3.2,0,0,1,0-4.53,3.21,3.21,0,0,1,4.52,0l0,0,0,0A3.2,3.2,0,0,1,96.87,89,3.15,3.15,0,0,1,95.93,91.29Z"/><path class="cls-1" d="M88.73,79.06H85.54a.93.93,0,0,1-.92-.93v-1a12.2,12.2,0,0,1-6.12,0v1a.93.93,0,0,1-.92.93H74.39a10.44,10.44,0,0,0,14.34,0Z"/><path class="cls-1" d="M81.56,84.75a13.84,13.84,0,0,0,10.8-5.42l.22-.27H91.29a12.43,12.43,0,0,1-19.47,0H70.54l.21.27A13.85,13.85,0,0,0,81.56,84.75Z"/><path class="cls-1" d="M89.55,72a12.74,12.74,0,0,0,3.35-8.52v-2H70.22v2A12.78,12.78,0,0,0,73.56,72a10.56,10.56,0,0,0,16,0Zm-5.06-8.77a.93.93,0,0,1,1.31,0,2.07,2.07,0,0,0,2.93,0,.92.92,0,0,1,1.3,0,.93.93,0,0,1,0,1.31,3.94,3.94,0,0,1-5.54,0A.93.93,0,0,1,84.49,63.26Zm-3.86,1.52a.93.93,0,0,1,1.85,0v2.06H83a.93.93,0,0,1,0,1.85h-.81a1.54,1.54,0,0,1-1.54-1.54Zm-7.55-.21a.93.93,0,1,1,1.31-1.31,2.07,2.07,0,0,0,2.93,0,.92.92,0,0,1,1.3,0,.93.93,0,0,1,0,1.31,3.94,3.94,0,0,1-5.54,0Zm4.38,5.68a.92.92,0,0,1,1.3,0,4,4,0,0,0,5.59,0,.93.93,0,0,1,1.31,1.31,5.82,5.82,0,0,1-8.2,0A.93.93,0,0,1,77.46,70.25Z"/><path class="cls-2" d="M96.28,77.21H86.46V76.5a13.4,13.4,0,0,0,4.45-3.22,14.75,14.75,0,0,0,2.4-3.56h1.12a4.26,4.26,0,0,0,.91-8.43A2.78,2.78,0,0,0,97,58.73V57.1a2.76,2.76,0,0,0-1.89-2.62,15.31,15.31,0,0,0-8.82-11.89,6.68,6.68,0,0,0,.92-3.41,1.52,1.52,0,0,0-1.52-1.52H77.4a1.53,1.53,0,0,0-1.53,1.52,6.59,6.59,0,0,0,.93,3.41A15.26,15.26,0,0,0,68,54.48a2.77,2.77,0,0,0-1.9,2.62v1.63a2.78,2.78,0,0,0,1.7,2.56,4.26,4.26,0,0,0,.91,8.43H69.8a14.51,14.51,0,0,0,2.41,3.56,13.47,13.47,0,0,0,4.44,3.22v.71H66.84A3.77,3.77,0,0,0,63.07,81V93H60.81A2.78,2.78,0,0,1,58,90.23v-22h.51a1.54,1.54,0,0,0,1.54-1.54V64.87h2.57a1.54,1.54,0,0,0,1.54-1.54V47.44a1.54,1.54,0,0,0-1.54-1.54h-.24V44.43a1.54,1.54,0,0,0-1.53-1.54H53.36a1.54,1.54,0,0,0-1.54,1.54V45.9h-.24A1.54,1.54,0,0,0,50,47.44V63.33a1.54,1.54,0,0,0,1.54,1.54h2.57v1.82a1.54,1.54,0,0,0,1.54,1.54h.51v22a4.62,4.62,0,0,0,4.61,4.61h2.26V99a1.63,1.63,0,0,0,1.63,1.63H98.41A1.63,1.63,0,0,0,100,99V81A3.77,3.77,0,0,0,96.28,77.21ZM53.66,44.73h6.92V45.9H53.66Zm-1.77,5.85h4.75a.93.93,0,1,0,0-1.85H51.89v-1H62.35v1H61.2a.93.93,0,1,0,0,1.85h1.15v9.35H51.89Zm0,12.45V61.78H62.35V63ZM56,66.38V64.87h2.24v1.51Zm40.85-.93a2.42,2.42,0,0,1-2.42,2.42h-.38a14.35,14.35,0,0,0,.69-4.36v-.45A2.42,2.42,0,0,1,96.85,65.45ZM85.38,39.5a4.84,4.84,0,0,1-.87,2.5,12.27,12.27,0,0,0-5.9,0,4.76,4.76,0,0,1-.88-2.5ZM68.69,67.87a2.42,2.42,0,0,1-.32-4.81v.45a14.06,14.06,0,0,0,.7,4.36Zm.16-8.21a.93.93,0,0,1-.92-.93V57.1a.92.92,0,0,1,.92-.92H85.07a.92.92,0,1,0,0-1.84H69.87c1.16-6.2,6-10.86,11.69-10.86s10.53,4.66,11.68,10.86H90.12a.92.92,0,0,0,0,1.84h4.14a.92.92,0,0,1,.92.92v1.63a.93.93,0,0,1-.92.93ZM73.56,72a12.78,12.78,0,0,1-3.34-8.52v-2H92.9v2A12.74,12.74,0,0,1,89.55,72a10.56,10.56,0,0,1-16,0Zm4,7a.93.93,0,0,0,.92-.93v-1a12.2,12.2,0,0,0,6.12,0v1a.93.93,0,0,0,.92.93h3.19a10.44,10.44,0,0,1-14.34,0Zm-5.76,0a12.43,12.43,0,0,0,19.47,0h1.29l-.22.27a13.48,13.48,0,0,1-21.61,0l-.21-.27ZM87.94,98.45a.39.39,0,0,1-.38.38H82.8V94.92a1.23,1.23,0,0,0,0-.2l1.51-1.51a.41.41,0,0,1,.27-.11.37.37,0,0,1,.25.64l-.76.76a.93.93,0,0,0-.2,1,.91.91,0,0,0,.85.57h2.86a.39.39,0,0,1,.38.39Zm10.26.38H89.76a2.43,2.43,0,0,0,0-.38v-2a2.23,2.23,0,0,0-2.23-2.23h-.92a2.23,2.23,0,0,0-.52-2.33,2.16,2.16,0,0,0-1.56-.64,2.22,2.22,0,0,0-1.58.65l-1.42,1.42a1.75,1.75,0,0,0-.4,0H78.67a.93.93,0,0,0,0,1.85H81v3.7h-16V87.29h3.81a.5.5,0,0,1,.5.49V94.2a.93.93,0,0,0,.92.93h4.22a.93.93,0,0,0,0-1.85h-3.3v-5.5a2.34,2.34,0,0,0-2.34-2.34H64.92V81a1.92,1.92,0,0,1,1.92-1.92h1.34l1.13,1.42a15.31,15.31,0,0,0,24.49,0l1.13-1.42h1.35A1.93,1.93,0,0,1,98.2,81Z"/><path class="cls-2" d="M93.67,85.83a3.18,3.18,0,0,0-2.26.93l0,0,0,0a3.2,3.2,0,1,0-4.52,4.53l3.56,3.56a1.39,1.39,0,0,0,1,.41,1.35,1.35,0,0,0,1-.4l3.59-3.57a3.2,3.2,0,0,0-2.26-5.46Zm1,4.15-3.26,3.24L88.13,90a1.38,1.38,0,0,1-.39-1,1.35,1.35,0,0,1,2.31-1l.68.68a.92.92,0,0,0,1.3,0l.68-.68a1.35,1.35,0,0,1,1.92,0,1.39,1.39,0,0,1,.4,1A1.31,1.31,0,0,1,94.63,90Z"/><path class="cls-2" d="M78.62,63.26a.92.92,0,0,0-1.3,0,2.07,2.07,0,0,1-2.93,0,.93.93,0,1,0-1.31,1.31,3.94,3.94,0,0,0,5.54,0A.93.93,0,0,0,78.62,63.26Z"/><path class="cls-2" d="M87.26,65.71A3.91,3.91,0,0,0,90,64.57a.93.93,0,0,0,0-1.31.92.92,0,0,0-1.3,0,2.07,2.07,0,0,1-2.93,0,.93.93,0,1,0-1.31,1.31A3.93,3.93,0,0,0,87.26,65.71Z"/><path class="cls-2" d="M82.17,68.69H83a.93.93,0,0,0,0-1.85h-.5V64.78a.93.93,0,0,0-1.85,0v2.37A1.54,1.54,0,0,0,82.17,68.69Z"/><path class="cls-2" d="M85.66,71.56a.93.93,0,0,0-1.31-1.31,4,4,0,0,1-5.59,0,.92.92,0,0,0-1.3,0,.93.93,0,0,0,0,1.31,5.82,5.82,0,0,0,8.2,0Z"/><path class="cls-2" d="M59.12,54.45H58V53.34a.92.92,0,1,0-1.84,0v1.11H55a.93.93,0,0,0,0,1.85h1.12v1.11a.92.92,0,0,0,1.84,0V56.3h1.12a.93.93,0,0,0,0-1.85Z"/></g></svg>