<svg xmlns="http://www.w3.org/2000/svg" viewBox="0 0 150 150"><defs><style>.cls-1{fill:#fbf4f3;}.cls-2{fill:#fd3b1a;}</style></defs><title>family</title><g id="Layer_1" data-name="Layer 1"><path class="cls-1" d="M75.06,68.72v2.49a15.16,15.16,0,1,1-19.48,7.7.93.93,0,1,1,1.68.78A13.2,13.2,0,0,0,56,85.27a13.33,13.33,0,1,0,19-12v9.3a4.15,4.15,0,0,1-8.3,0V72.2a13.42,13.42,0,0,0-8,5,.92.92,0,0,1-.74.36,1,1,0,0,1-.55-.18.93.93,0,0,1-.18-1.3,15.22,15.22,0,0,1,9.5-5.79V68a17.2,17.2,0,0,0-4.83,1.46l-.06,0a17.67,17.67,0,0,0-5.4,4,17.49,17.49,0,1,0,18.59-4.72Z"/><path class="cls-1" d="M66.4,66.16l-3.57-9.3a1.61,1.61,0,0,0-2.77-.42,1.6,1.6,0,0,0-.29,1.38l2.36,9.51A19,19,0,0,1,66.4,66.16Z"/><path class="cls-1" d="M74.07,58.29a7,7,0,1,0-7-7A7,7,0,0,0,74.07,58.29Z"/><path class="cls-1" d="M74.07,60.13A8.74,8.74,0,0,1,69.81,59l-.42,1.62a25.39,25.39,0,0,0-.79,6.26v12h4.61V63.61a.93.93,0,0,1,1.85,0v3.17a19.72,19.72,0,0,1,4.24,1.89l-1.89-9.2A8.65,8.65,0,0,1,74.07,60.13Z"/><path class="cls-1" d="M88.42,88.58h.38l.73-7.06H88.34a19.38,19.38,0,0,1,.37,3.75A19,19,0,0,1,88.42,88.58Z"/><path class="cls-1" d="M68.6,80.77v1.75a2.31,2.31,0,0,0,4.61,0V80.77Z"/><path class="cls-1" d="M114.78,46.18C97.4,28.8,59.52,26.48,42,44.06S19.62,84,37,101.33s50.31,19,67.88,1.42S132.16,63.56,114.78,46.18ZM94,104.62a6,6,0,0,1-6-6,5.91,5.91,0,0,1,1.67-4.14H86.37A19.35,19.35,0,1,1,60.43,68.11L58,58.27A3.46,3.46,0,0,1,61.33,54a3.47,3.47,0,0,1,3.22,2.22l2.53,6.57c.13-.87.31-1.73.52-2.58l.59-2.31a8.81,8.81,0,1,1,10.91.67L81.49,70.2a20.77,20.77,0,0,1,2,1.86l10.16,1a4.16,4.16,0,0,1,3.71,4.61l-.29,2.46a.94.94,0,0,1-.92.82H96a.92.92,0,0,1-.8-1l.28-2.47A2.25,2.25,0,0,0,95,75.75a2.33,2.33,0,0,0-1.56-.85l-8.34-.82a19.16,19.16,0,0,1,2.75,5.59h2.67a.93.93,0,0,1,.69.31.92.92,0,0,1,.23.71l-.82,7.89h3.57l.69-5.9a.92.92,0,1,1,1.83.21l-.66,5.69h3a.93.93,0,0,1,.92.93v4a.93.93,0,0,1-.92.93h-.69A6,6,0,0,1,94,104.62Z"/><path class="cls-1" d="M94.05,94.49h0a4.14,4.14,0,1,0,4.16,4.14A4.15,4.15,0,0,0,94,94.49Zm0,6.88a2.74,2.74,0,1,1,2.74-2.74A2.74,2.74,0,0,1,94,101.37Z"/><path class="cls-1" d="M94,97.73a.9.9,0,1,0,.9.9A.89.89,0,0,0,94,97.73Z"/><path class="cls-1" d="M94,92.64h4.08V90.43H88a20.55,20.55,0,0,1-.76,2.21H94Z"/><path class="cls-2" d="M99,94.49a.93.93,0,0,0,.92-.93v-4a.93.93,0,0,0-.92-.93h-3l.66-5.69a.92.92,0,1,0-1.83-.21l-.69,5.9H90.65l.82-7.89a.92.92,0,0,0-.23-.71.93.93,0,0,0-.69-.31H87.88a19.16,19.16,0,0,0-2.75-5.59l8.34.82a2.33,2.33,0,0,1,1.56.85,2.25,2.25,0,0,1,.49,1.71l-.28,2.47a.92.92,0,0,0,.8,1h.11a.94.94,0,0,0,.92-.82l.29-2.46a4.16,4.16,0,0,0-3.71-4.61l-10.16-1a20.77,20.77,0,0,0-2-1.86L79.1,58.55a8.81,8.81,0,1,0-10.91-.67l-.59,2.31c-.21.85-.39,1.71-.52,2.58L64.55,56.2A3.47,3.47,0,0,0,61.33,54,3.46,3.46,0,0,0,58,58.27l2.45,9.84A19.35,19.35,0,1,0,86.37,94.49h3.35a5.91,5.91,0,0,0-1.67,4.14,6,6,0,1,0,10.3-4.14Zm-9.51-13h0l-.73,7.06h-.38a19,19,0,0,0,.29-3.31,19.38,19.38,0,0,0-.37-3.75ZM79.3,68.67a19.72,19.72,0,0,0-4.24-1.89V63.61a.93.93,0,0,0-1.85,0V78.92H68.6v-12a25.39,25.39,0,0,1,.79-6.26L69.81,59a8.79,8.79,0,0,0,7.6.44Zm-6.09,12.1v1.75a2.31,2.31,0,0,1-4.61,0V80.77h4.61ZM67.1,51.32a7,7,0,1,1,7,7A7,7,0,0,1,67.1,51.32Zm-7.33,6.5a1.6,1.6,0,0,1,.29-1.38,1.61,1.61,0,0,1,2.77.42l3.57,9.3a19,19,0,0,0-4.27,1.17Zm9.59,44.95a17.51,17.51,0,0,1-7.49-33.32l.06,0A17.2,17.2,0,0,1,66.76,68v2.36a15.22,15.22,0,0,0-9.5,5.79.93.93,0,0,0,.18,1.3,1,1,0,0,0,.55.18.92.92,0,0,0,.74-.36,13.42,13.42,0,0,1,8-5V82.52a4.15,4.15,0,0,0,8.3,0v-9.3a13.33,13.33,0,1,1-19,12,13.2,13.2,0,0,1,1.22-5.58.93.93,0,1,0-1.68-.78,15.18,15.18,0,1,0,19.48-7.7V68.72a17.5,17.5,0,0,1-5.7,34.05ZM87.25,92.64A20.55,20.55,0,0,0,88,90.43h10.1v2.21H87.25ZM94,102.77a4.14,4.14,0,0,1,0-8.28h0a4.14,4.14,0,0,1,0,8.28Z"/><path class="cls-2" d="M94,95.89a2.74,2.74,0,1,0,2.74,2.74A2.74,2.74,0,0,0,94,95.89Zm0,3.63a.9.9,0,1,1,.9-.89A.89.89,0,0,1,94,99.52Z"/></g></svg>