<?xml version="1.0" encoding="utf-8"?>
<!-- Generator: Adobe Illustrator 22.1.0, SVG Export Plug-In . SVG Version: 6.00 Build 0)  -->
<svg version="1.1" id="Layer_1" xmlns="http://www.w3.org/2000/svg" xmlns:xlink="http://www.w3.org/1999/xlink" x="0px" y="0px"
	 viewBox="0 0 384 95" style="enable-background:new 0 0 384 95;" xml:space="preserve">
<style type="text/css">
	.st0{fill:none;}
	.st1{fill:#FFFFFF;}
</style>
<title>Group 4</title>
<desc>Created with Sketch.</desc>
<g id="Page-1">
	<g id="Artboard" transform="translate(-118.000000, -105.000000)">
		<g id="Group-4" transform="translate(118.000000, 104.000000)">
			<g id="Clip-15">
			</g>
			<g id="Clip-18">
			</g>
			<g id="Clip-21">
			</g>
		</g>
	</g>
</g>
<path class="st0" d="M292.2,36.5c-6.6,0-10.7,5.1-10.7,11.3c0,6.3,4.5,11.5,10.9,11.5c6.6,0,10.8-5.1,10.8-11.3
	C303.1,41.7,298.6,36.5,292.2,36.5z"/>
<path class="st0" d="M212,36.1c-5,0-8.5,3.8-9.3,9.3h18.3C220.5,40.2,217.4,36.1,212,36.1z"/>
<path class="st0" d="M251,36.5c-5.6,0-10.3,4.3-10.3,11.4c0,7,4.7,11.4,10.3,11.4c5.5,0,10.3-4.5,10.3-11.4
	C261.4,41,256.5,36.5,251,36.5z"/>
<path class="st0" d="M174.2,36.1c-5,0-8.5,3.8-9.3,9.3h18.3C182.8,40.2,179.6,36.1,174.2,36.1z"/>
<path class="st0" d="M377.2,19c-3.3,0-6.1,2.7-6.1,6c0,3.3,2.7,6,6.1,6s6.1-2.7,6.1-6C383.3,21.7,380.5,19,377.2,19z M376.4,23.6
	h-1.3v3.5h-0.9v-3.5H373v-0.7h3.4V23.6z M381.1,27.2h-0.8v-3.4l-0.9,3.4h-0.8l-0.8-3.4v3.4h-0.8v-4.3h1.3l0.8,2.9l0.8-2.9h1.3V27.2z
	"/>
<g>
	<polygon class="st1" points="59.3,23.8 35.6,23.8 41.5,17.9 47.4,12 41.5,6.1 35.6,0.2 11.9,0.2 17.8,6.1 23.7,12 17.8,17.9 
		11.9,23.8 7.9,27.7 0,35.6 11.9,47.4 23.7,35.6 31.6,27.7 35.6,23.8 39.5,27.7 47.4,35.6 35.6,47.4 23.7,59.2 35.6,71 29.7,76.8 
		23.7,82.7 47.4,82.7 53.4,76.8 59.3,71 47.4,59.2 59.3,47.4 71.2,35.6 63.3,27.7 	"/>
	<polygon class="st1" points="301.6,76.6 298.4,76.6 298.4,94.7 311.2,94.7 311.2,91.8 301.6,91.8 	"/>
	<rect x="319.9" y="76.6" class="st1" width="3.2" height="18.1"/>
	<polygon class="st1" points="333.2,94.7 336.4,94.7 336.4,87.3 345.6,87.3 345.6,84.4 336.4,84.4 336.4,79.5 346.7,79.5 
		346.7,76.6 333.2,76.6 	"/>
	<polygon class="st1" points="358.7,87 367.8,87 367.8,84.1 358.7,84.1 358.7,79.4 369,79.4 369,76.6 355.4,76.6 355.4,94.7 
		369.1,94.7 369.1,91.8 358.7,91.8 	"/>
	<polygon class="st1" points="94.9,65.6 103.2,65.6 103.2,46.5 127,46.5 127,38.9 103.2,38.9 103.2,26.1 130.1,26.1 130.1,18.6 
		94.9,18.6 	"/>
	<path class="st1" d="M142,38.1v-8h-8.2v35.4h8.2V52.1c0-9.4,5-14,12.2-14h0.5v-8.6C148.4,29.2,144.3,32.8,142,38.1z"/>
	<path class="st1" d="M174.3,29.4c-10.2,0-17.4,8.3-17.4,18.5c0,11,8,18.5,18.3,18.5c6.6,0,11.2-2.6,14.6-6.6l-4.8-4.2
		c-2.8,2.8-5.7,4.2-9.7,4.2c-5.3,0-9.3-3.2-10.3-9h26.2c0.1-0.8,0.1-1.5,0.1-2.2C191.4,38.3,185.7,29.4,174.3,29.4z M165,45.4
		c0.7-5.5,4.3-9.3,9.3-9.3c5.4,0,8.5,4.1,9.1,9.3H165z"/>
	<path class="st1" d="M212.1,29.4c-10.2,0-17.4,8.3-17.4,18.5c0,11,8,18.5,18.3,18.5c6.6,0,11.2-2.6,14.6-6.6l-4.8-4.2
		c-2.8,2.8-5.7,4.2-9.7,4.2c-5.3,0-9.3-3.2-10.3-9H229c0.1-0.8,0.1-1.5,0.1-2.2C229.2,38.3,223.4,29.4,212.1,29.4z M202.7,45.4
		c0.7-5.5,4.3-9.3,9.3-9.3c5.4,0,8.5,4.1,9.1,9.3H202.7z"/>
	<path class="st1" d="M261.2,35.7c-2.6-3.3-6.3-6.2-12.2-6.2c-8.5,0-16.5,6.6-16.5,18.5c0,11.8,8.2,18.5,16.5,18.5
		c5.8,0,9.5-3,12.2-6.6v5.9h8.2v-49h-8.2V35.7z M251,59.3c-5.5,0-10.3-4.4-10.3-11.4c0-7.1,4.7-11.4,10.3-11.4
		c5.5,0,10.3,4.5,10.3,11.4C261.4,54.8,256.5,59.3,251,59.3z"/>
	<path class="st1" d="M292.3,29.4c-10.9,0-19,8.4-19,18.6c0,10.1,8,18.4,18.9,18.4c11,0,19.1-8.4,19.1-18.5
		C311.3,37.7,303.2,29.4,292.3,29.4z M292.3,59.3c-6.3,0-10.9-5.2-10.9-11.5c0-6.2,4.2-11.3,10.7-11.3c6.4,0,10.9,5.2,10.9,11.5
		C303.1,54.2,298.9,59.3,292.3,59.3z"/>
	<path class="st1" d="M356.9,29.4c-5.4,0-9.2,2.5-12.1,6.2c-1.9-3.8-5.5-6.2-10.6-6.2c-5.5,0-8.6,3-10.9,6.1v-5.4h-8.2v35.4h8.2
		V45.7c0-5.5,3.1-8.9,7.6-8.9s7.2,3.1,7.2,8.6v20.2h8.2v-20c0-5.7,3.2-8.8,7.6-8.8c4.6,0,7.2,3,7.2,8.7v20.1h8.2V43
		C369.4,34.3,364.7,29.4,356.9,29.4z"/>
	<path class="st1" d="M377.2,18.3c-3.7,0-6.8,3-6.8,6.7c0,3.7,3,6.7,6.8,6.7s6.8-3,6.8-6.7C384,21.3,380.9,18.3,377.2,18.3z
		 M377.2,31c-3.3,0-6.1-2.7-6.1-6c0-3.3,2.7-6,6.1-6s6.1,2.7,6.1,6C383.3,28.3,380.5,31,377.2,31z"/>
	<polygon class="st1" points="373,23.6 374.2,23.6 374.2,27.2 375.1,27.2 375.1,23.6 376.4,23.6 376.4,22.9 373,22.9 	"/>
	<polygon class="st1" points="379,25.8 378.2,22.9 376.9,22.9 376.9,27.2 377.7,27.2 377.7,23.8 378.6,27.2 379.4,27.2 380.3,23.8 
		380.3,27.2 381.1,27.2 381.1,22.9 379.8,22.9 	"/>
</g>
</svg>
