<svg xmlns="http://www.w3.org/2000/svg" viewBox="0 0 150 150"><defs><style>.cls-1{fill:#fbf4f3;}.cls-2{fill:#fd3b1a;}</style></defs><title>family</title><g id="Layer_1" data-name="Layer 1"><path class="cls-1" d="M79.5,43.54A17.4,17.4,0,0,0,62.12,60.92v29A4.6,4.6,0,0,1,64.45,91a4.72,4.72,0,0,1,.72-.52V60.92a14.15,14.15,0,0,1,2.92-8.65.9.9,0,0,1,1.28-.18.91.91,0,0,1,.17,1.28A12.4,12.4,0,0,0,67,60.92v29l.46,0a4.59,4.59,0,0,1,3,1.13,4.57,4.57,0,0,1,6,0,4.57,4.57,0,0,1,6,0,4.57,4.57,0,0,1,6,0,4.59,4.59,0,0,1,3-1.13l.46,0V77.69a.92.92,0,1,1,1.83,0v12.8a4.72,4.72,0,0,1,.72.52,4.6,4.6,0,0,1,2.33-1.08v-29A17.4,17.4,0,0,0,79.5,43.54ZM71.57,86.22a.92.92,0,1,1,.92-.91A.91.91,0,0,1,71.57,86.22Zm12.2-3.66a.92.92,0,1,1,.91-.91A.92.92,0,0,1,83.77,82.56ZM85,66.71H74a.92.92,0,0,1,0-1.83H85a.92.92,0,0,1,0,1.83Zm0-4.88H74A.92.92,0,0,1,74,60H85a.92.92,0,0,1,0,1.83Zm2.44,24.39a.92.92,0,1,1,.91-.91A.92.92,0,0,1,87.43,86.22ZM93.83,74A.92.92,0,0,1,92,74V60.92A12.5,12.5,0,0,0,72,51a.9.9,0,0,1-1.28-.18.92.92,0,0,1,.18-1.28,14.33,14.33,0,0,1,23,11.42Z"/><path class="cls-1" d="M119.81,41.34C102.43,24,64.55,21.64,47,39.22S24.65,79.11,42,96.49s50.31,19,67.89,1.42S137.18,58.72,119.81,41.34ZM103.59,91.71a2.73,2.73,0,0,0-2.26,1.19.93.93,0,0,1-1.51,0,2.73,2.73,0,0,0-4.51,0,1,1,0,0,1-.76.39.92.92,0,0,1-.75-.39,2.74,2.74,0,0,0-4.52,0,.92.92,0,0,1-1.5,0,2.74,2.74,0,0,0-4.52,0,.92.92,0,0,1-1.5,0,2.74,2.74,0,0,0-4.52,0,.92.92,0,0,1-1.5,0,2.74,2.74,0,0,0-4.52,0,.92.92,0,0,1-1.5,0,2.74,2.74,0,0,0-4.52,0,.92.92,0,0,1-.75.39,1,1,0,0,1-.76-.39,2.73,2.73,0,0,0-4.51,0,.92.92,0,0,1-.75.39.94.94,0,0,1-.76-.39,2.72,2.72,0,0,0-2.26-1.19.92.92,0,0,1,0-1.83,4.61,4.61,0,0,1,3,1.13,4.51,4.51,0,0,1,1.86-1V60.92a19.21,19.21,0,1,1,38.42,0V90a4.51,4.51,0,0,1,1.86,1,4.61,4.61,0,0,1,3-1.13.92.92,0,1,1,0,1.83Z"/><path class="cls-2" d="M83.77,80.73a.92.92,0,1,0,.91.92A.92.92,0,0,0,83.77,80.73Z"/><circle class="cls-2" cx="87.43" cy="85.31" r="0.91"/><path class="cls-2" d="M71.57,84.39a.92.92,0,1,0,.92.92A.92.92,0,0,0,71.57,84.39Z"/><path class="cls-2" d="M85,64.88H74a.92.92,0,0,0,0,1.83H85a.92.92,0,0,0,0-1.83Z"/><path class="cls-2" d="M85,60H74a.92.92,0,0,0,0,1.83H85A.92.92,0,0,0,85,60Z"/><path class="cls-2" d="M79.5,46.59a14.22,14.22,0,0,0-8.65,2.91.92.92,0,0,0-.18,1.28A.9.9,0,0,0,72,51a12.5,12.5,0,0,1,20,10V74a.92.92,0,0,0,1.83,0V60.92A14.35,14.35,0,0,0,79.5,46.59Z"/><path class="cls-2" d="M103.58,89.88a4.61,4.61,0,0,0-3,1.13,4.51,4.51,0,0,0-1.86-1V60.92a19.21,19.21,0,1,0-38.42,0V90a4.51,4.51,0,0,0-1.86,1,4.61,4.61,0,0,0-3-1.13.92.92,0,0,0,0,1.83,2.72,2.72,0,0,1,2.26,1.19.94.94,0,0,0,.76.39.92.92,0,0,0,.75-.39,2.73,2.73,0,0,1,4.51,0,1,1,0,0,0,.76.39.92.92,0,0,0,.75-.39,2.74,2.74,0,0,1,4.52,0,.92.92,0,0,0,1.5,0,2.74,2.74,0,0,1,4.52,0,.92.92,0,0,0,1.5,0,2.74,2.74,0,0,1,4.52,0,.92.92,0,0,0,1.5,0,2.74,2.74,0,0,1,4.52,0,.92.92,0,0,0,1.5,0,2.74,2.74,0,0,1,4.52,0,.92.92,0,0,0,.75.39,1,1,0,0,0,.76-.39,2.73,2.73,0,0,1,4.51,0,.93.93,0,0,0,1.51,0,2.73,2.73,0,0,1,2.26-1.19.92.92,0,1,0,0-1.83Zm-6.7.05A4.6,4.6,0,0,0,94.55,91a4.72,4.72,0,0,0-.72-.52V77.69a.92.92,0,1,0-1.83,0V89.9l-.46,0a4.59,4.59,0,0,0-3,1.13,4.57,4.57,0,0,0-6,0,4.57,4.57,0,0,0-6,0,4.57,4.57,0,0,0-6,0,4.59,4.59,0,0,0-3-1.13l-.46,0v-29a12.4,12.4,0,0,1,2.54-7.55.91.91,0,0,0-.17-1.28.9.9,0,0,0-1.28.18,14.15,14.15,0,0,0-2.92,8.65V90.49a4.72,4.72,0,0,0-.72.52,4.6,4.6,0,0,0-2.33-1.08v-29a17.38,17.38,0,1,1,34.76,0Z"/></g></svg>