<svg xmlns="http://www.w3.org/2000/svg" viewBox="0 0 150 150"><defs><style>.cls-1{fill:#fbf4f3;}.cls-2{fill:#fd3b1a;}</style></defs><title>family</title><g id="Layer_1" data-name="Layer 1"><path class="cls-1" d="M62.28,72.69a4.93,4.93,0,0,1-4.82-4l-1.81.54a6.83,6.83,0,0,0,6.63,5.3,6.76,6.76,0,0,0,3.46-.94,2.4,2.4,0,0,1,.83-1.81v-.7A9.79,9.79,0,0,1,66.64,70,4.92,4.92,0,0,1,62.28,72.69Z"/><path class="cls-1" d="M76.61,83.07v-.58a6.68,6.68,0,0,1-3.55,0v.58A1.57,1.57,0,0,1,72,84.56l-.47.15a4.27,4.27,0,0,0,6.63,0l-.46-.15A1.58,1.58,0,0,1,76.61,83.07Z"/><path class="cls-1" d="M69.82,57.84a.95.95,0,0,0,0-1.89H69a.73.73,0,1,1,0-1.46h.94V50.2a2.62,2.62,0,0,0-1.34-2.27.7.7,0,0,1-.36-.52,1.77,1.77,0,0,0-1.75-1.5h-6.7A5.13,5.13,0,0,0,54.65,51v3.45H55.9l.67-2a.73.73,0,0,1,.69-.5c.07,0,6.56,0,9.72-1.6a.73.73,0,1,1,.65,1.31c-2.94,1.47-8.15,1.71-9.84,1.75l-.67,2a.73.73,0,0,1-.69.5H54.75a.95.95,0,0,0,0,1.89.73.73,0,0,1,.74.73,6.8,6.8,0,1,0,13.59,0A.73.73,0,0,1,69.82,57.84Zm-10.15-.11a.74.74,0,0,1-1.47,0v-.84a.74.74,0,0,1,1.47,0Zm4.86,3.81a2.83,2.83,0,0,1-4.49,0,.73.73,0,0,1,1.14-.92,1.37,1.37,0,0,0,2.21,0,.73.73,0,0,1,1-.11A.74.74,0,0,1,64.53,61.54Zm1.83-3.81a.73.73,0,0,1-1.46,0v-.84a.73.73,0,0,1,1.46,0Z"/><path class="cls-1" d="M62.28,71.22a3.45,3.45,0,0,0,3.46-3.45V66.08a8.33,8.33,0,0,1-6.91,0v1.69h0A3.45,3.45,0,0,0,62.28,71.22Z"/><polygon class="cls-1" points="70.55 63.1 70.55 65.75 73.2 64.43 70.55 63.1"/><path class="cls-1" d="M80.24,61.29a.74.74,0,0,1,.35.63v3.27a8.16,8.16,0,0,1,2,3.09,6.8,6.8,0,0,0,10.59-4,6.92,6.92,0,0,0,.17-1.51c0-2.8-1.61-3.26-4.71-3.87a15.45,15.45,0,0,1-5-1.61A4.84,4.84,0,0,1,80,60.12a.73.73,0,0,1-.88-.54.73.73,0,0,1,.53-.89c2.76-.69,2.79-2.61,2.79-2.63a.73.73,0,0,1,1.19-.57,11.72,11.72,0,0,0,5.27,1.95c2.89.58,5.89,1.17,5.89,5.31a8.11,8.11,0,0,1-.21,1.84,8.28,8.28,0,0,1-2.87,4.59,7.52,7.52,0,0,1-1.11.76V71.1a15.74,15.74,0,0,0,5.18-2A96.55,96.55,0,0,1,95,57.73a8.47,8.47,0,0,0-16.94,0c0,1.35,0,2.8-.13,4.32l1.58-.79A.74.74,0,0,1,80.24,61.29Zm8.93-.21a.73.73,0,1,1,1.46,0v.84a.73.73,0,1,1-1.46,0Zm-4.75,3.61a.74.74,0,0,1,1,.11,1.4,1.4,0,0,0,1.1.57,1.42,1.42,0,0,0,1.11-.57.74.74,0,0,1,1-.11.73.73,0,0,1,.1,1,2.82,2.82,0,0,1-4.48,0A.72.72,0,0,1,84.42,64.69Zm-2-3.61a.74.74,0,0,1,1.47,0v.84a.74.74,0,0,1-1.47,0Z"/><polygon class="cls-1" points="79.13 63.1 76.47 64.43 79.13 65.75 79.13 63.1"/><path class="cls-1" d="M69.08,63.26A8.06,8.06,0,0,1,67.2,65.2V68a8.19,8.19,0,0,1,1.88-2.79Z"/><path class="cls-1" d="M89.17,71.66V70.59a8.32,8.32,0,0,1-2.62.43,8.21,8.21,0,0,1-3.5-.78,8.65,8.65,0,0,1,0,.88v.7A2.4,2.4,0,0,1,81.55,76a6,6,0,0,0,10.71-1.51l-1.58-.63A2.4,2.4,0,0,1,89.17,71.66Z"/><path class="cls-1" d="M82.47,73.63a.92.92,0,0,0-.47-.81.71.71,0,0,1-.36-.63V71.12a6.85,6.85,0,0,0-1.16-3.79.76.76,0,0,1-.62.34.76.76,0,0,1-.33-.08l-4.69-2.35-4.7,2.35a.72.72,0,0,1-.32.08.77.77,0,0,1-.39-.11.72.72,0,0,1-.23-.23A6.77,6.77,0,0,0,68,71.12v.09c1.93-.08,7.24-.47,10.62-2.4a.73.73,0,1,1,.72,1.27c-3.85,2.21-9.72,2.55-11.53,2.6a.62.62,0,0,1-.18.14.94.94,0,0,0,.47,1.75H69a.73.73,0,0,1,.73.73v.84a5.13,5.13,0,1,0,10.25,0V75.3a.73.73,0,0,1,.73-.73h.84A.94.94,0,0,0,82.47,73.63Zm-10.86.84a.73.73,0,1,1,.73.73A.73.73,0,0,1,71.61,74.47Zm5.47,3.81a2.84,2.84,0,0,1-4.49,0,.74.74,0,0,1,.11-1,.73.73,0,0,1,1,.1,1.42,1.42,0,0,0,1.11.57,1.4,1.4,0,0,0,1.1-.57.74.74,0,0,1,1.14.93Zm.24-3.08a.73.73,0,1,1,.73-.73A.73.73,0,0,1,77.32,75.2Z"/><path class="cls-1" d="M71,24.35c-24.85,0-44,12.43-44,37s22.15,49,47,49,47-8.42,47-33S95.85,24.35,71,24.35ZM99,82a.74.74,0,0,1-.22.52.74.74,0,0,1-.51.21h-.11v6.8a.73.73,0,0,1-1.46,0v-6.8H94.82v6.8a.74.74,0,0,1-1.47,0v-9.2a.74.74,0,1,1,1.47,0v.94h2.71V77.84a1.76,1.76,0,0,0-1.11-1.65l-2.8-1.12a7.42,7.42,0,0,1-12.44,2.85,6.63,6.63,0,0,1-3.1,4v1.19a.12.12,0,0,0,.07.1l2.73.91a3.24,3.24,0,0,1,2.22,3.08v2.37a.73.73,0,1,1-1.46,0V87.16a1.77,1.77,0,0,0-1.22-1.69l-.8-.27a5.76,5.76,0,0,1-9.56,0l-.81.27A1.78,1.78,0,0,0,68,87.16v2.37a.74.74,0,0,1-1.47,0V87.16a3.24,3.24,0,0,1,2.22-3.08l2.73-.91a.12.12,0,0,0,.07-.1V81.88a6.61,6.61,0,0,1-3.34-5.74V76h-.11a2.41,2.41,0,0,1-1.94-1,8.21,8.21,0,0,1-3.92,1,8.29,8.29,0,0,1-8-6.35l-2.52.76a1.77,1.77,0,0,0-1.27,1.7v7.44H54V76.9a1.72,1.72,0,0,0-.3-1L52.47,74a.73.73,0,1,1,1.22-.82l1.25,1.88a3.23,3.23,0,0,1,.55,1.8V89.53a.74.74,0,0,1-1.47,0V81.06H51.3v8.47a.73.73,0,0,1-1.46,0V81.06h-.11a.73.73,0,0,1-.73-.73V72.15a3.22,3.22,0,0,1,2.31-3.1l6.06-1.82v-2a8.29,8.29,0,0,1-3.33-6,2.41,2.41,0,0,1-.86-4.12V51a6.6,6.6,0,0,1,6.59-6.59h6.7a3.21,3.21,0,0,1,3.12,2.39,4.07,4.07,0,0,1,1.79,3.36v4.87a2.4,2.4,0,0,1-.86,4.12,8.12,8.12,0,0,1-.42,2.05l0,0,4.7,2.35,1.6-.8c.11-1.74.17-3.58.17-5.08a9.94,9.94,0,0,1,19.88,0,94.21,94.21,0,0,0,.83,11.61.73.73,0,0,1-.26.67,15.14,15.14,0,0,1-5.93,2.48l.09.05L97,74.83a3.23,3.23,0,0,1,2,3Z"/><path class="cls-2" d="M63.39,60.62a1.37,1.37,0,0,1-2.21,0,.73.73,0,0,0-1.14.92,2.83,2.83,0,0,0,4.49,0,.74.74,0,0,0-.11-1A.73.73,0,0,0,63.39,60.62Z"/><path class="cls-2" d="M58.94,56.16a.74.74,0,0,0-.74.73v.84a.74.74,0,0,0,1.47,0v-.84A.73.73,0,0,0,58.94,56.16Z"/><path class="cls-2" d="M65.63,56.16a.73.73,0,0,0-.73.73v.84a.73.73,0,0,0,1.46,0v-.84A.73.73,0,0,0,65.63,56.16Z"/><path class="cls-2" d="M86.55,66.83a2.87,2.87,0,0,0,2.24-1.11.73.73,0,0,0-.1-1,.74.74,0,0,0-1,.11,1.42,1.42,0,0,1-1.11.57,1.4,1.4,0,0,1-1.1-.57.74.74,0,0,0-1-.11.72.72,0,0,0-.11,1A2.88,2.88,0,0,0,86.55,66.83Z"/><path class="cls-2" d="M83.2,62.65a.74.74,0,0,0,.74-.73v-.84a.74.74,0,0,0-1.47,0v.84A.73.73,0,0,0,83.2,62.65Z"/><path class="cls-2" d="M89.9,62.65a.73.73,0,0,0,.73-.73v-.84a.73.73,0,1,0-1.46,0v.84A.73.73,0,0,0,89.9,62.65Z"/><path class="cls-2" d="M97,74.83l-5.74-2.29-.09-.05A15.14,15.14,0,0,0,97.06,70a.73.73,0,0,0,.26-.67,94.21,94.21,0,0,1-.83-11.61,9.94,9.94,0,0,0-19.88,0c0,1.5-.06,3.34-.17,5.08l-1.6.8-4.7-2.35,0,0a8.12,8.12,0,0,0,.42-2.05,2.4,2.4,0,0,0,.86-4.12V50.2a4.07,4.07,0,0,0-1.79-3.36,3.21,3.21,0,0,0-3.12-2.39h-6.7A6.6,6.6,0,0,0,53.18,51v4A2.41,2.41,0,0,0,54,59.19a8.29,8.29,0,0,0,3.33,6v2l-6.06,1.82A3.22,3.22,0,0,0,49,72.15v8.18a.73.73,0,0,0,.73.73h.11v8.47a.73.73,0,0,0,1.46,0V81.06H54v8.47a.74.74,0,0,0,1.47,0V76.9a3.23,3.23,0,0,0-.55-1.8l-1.25-1.88a.73.73,0,1,0-1.22.82l1.25,1.88a1.72,1.72,0,0,1,.3,1v2.69H50.46V72.15a1.77,1.77,0,0,1,1.27-1.7l2.52-.76a8.29,8.29,0,0,0,8,6.35,8.21,8.21,0,0,0,3.92-1,2.41,2.41,0,0,0,1.94,1h.11v.1a6.61,6.61,0,0,0,3.34,5.74v1.19a.12.12,0,0,1-.07.1l-2.73.91a3.24,3.24,0,0,0-2.22,3.08v2.37a.74.74,0,0,0,1.47,0V87.16a1.78,1.78,0,0,1,1.21-1.69l.81-.27a5.76,5.76,0,0,0,9.56,0l.8.27a1.77,1.77,0,0,1,1.22,1.69v2.37a.73.73,0,1,0,1.46,0V87.16a3.24,3.24,0,0,0-2.22-3.08l-2.73-.91a.12.12,0,0,1-.07-.1V81.88a6.63,6.63,0,0,0,3.1-4,7.42,7.42,0,0,0,12.44-2.85l2.8,1.12a1.76,1.76,0,0,1,1.11,1.65v3.43H94.82v-.94a.74.74,0,1,0-1.47,0v9.2a.74.74,0,0,0,1.47,0v-6.8H96.7v6.8a.73.73,0,0,0,1.46,0v-6.8h.11a.74.74,0,0,0,.51-.21A.74.74,0,0,0,99,82V77.84A3.23,3.23,0,0,0,97,74.83ZM78.08,57.73a8.47,8.47,0,0,1,16.94,0,96.55,96.55,0,0,0,.79,11.38,15.74,15.74,0,0,1-5.18,2V69.94a7.52,7.52,0,0,0,1.11-.76,8.28,8.28,0,0,0,2.87-4.59,8.11,8.11,0,0,0,.21-1.84c0-4.14-3-4.73-5.89-5.31a11.72,11.72,0,0,1-5.27-1.95.73.73,0,0,0-1.19.57s0,1.94-2.79,2.63a.73.73,0,0,0-.53.89.73.73,0,0,0,.88.54,4.84,4.84,0,0,0,3.64-2.85,15.45,15.45,0,0,0,5,1.61c3.1.61,4.71,1.07,4.71,3.87a6.92,6.92,0,0,1-.17,1.51,6.8,6.8,0,0,1-10.59,4,8.16,8.16,0,0,0-2-3.09V61.92a.73.73,0,0,0-1.06-.66L78,62.05C78,60.53,78.08,59.08,78.08,57.73Zm1,5.37v2.65l-2.65-1.32Zm-8.57,0,2.65,1.33-2.65,1.32Zm-4,8v.7a2.4,2.4,0,0,0-.83,1.81,6.76,6.76,0,0,1-3.46.94,6.83,6.83,0,0,1-6.63-5.3l1.81-.54A4.91,4.91,0,0,0,66.64,70,9.79,9.79,0,0,0,66.57,71.12Zm-7.74-3.35V66.08a8.33,8.33,0,0,0,6.91,0v1.69a3.46,3.46,0,0,1-6.91,0Zm3.45-2.4a6.8,6.8,0,0,1-6.79-6.8.73.73,0,0,0-.74-.73.95.95,0,0,1,0-1.89h1.68a.73.73,0,0,0,.69-.5l.67-2c1.69,0,6.9-.28,9.84-1.75A.73.73,0,1,0,67,50.38C63.82,52,57.33,52,57.26,52a.73.73,0,0,0-.69.5l-.67,2H54.65V51a5.13,5.13,0,0,1,5.12-5.13h6.7a1.77,1.77,0,0,1,1.75,1.5.7.7,0,0,0,.36.52,2.62,2.62,0,0,1,1.34,2.27v4.29H69A.73.73,0,1,0,69,56h.84a.95.95,0,0,1,0,1.89.73.73,0,0,0-.74.73A6.81,6.81,0,0,1,62.28,65.37Zm4.92,2.4V65.2a8.06,8.06,0,0,0,1.88-1.94v1.93A8.19,8.19,0,0,0,67.2,68Zm11,16.94a4.27,4.27,0,0,1-6.63,0l.47-.15a1.57,1.57,0,0,0,1.07-1.49v-.58a6.68,6.68,0,0,0,3.55,0v.58a1.58,1.58,0,0,0,1.08,1.49Zm2.54-10.14a.73.73,0,0,0-.73.73v.84a5.13,5.13,0,1,1-10.25,0V75.3a.73.73,0,0,0-.73-.73h-.84a.94.94,0,0,1-.47-1.75.62.62,0,0,0,.18-.14c1.81-.05,7.68-.39,11.53-2.6a.73.73,0,1,0-.72-1.27C75.28,70.74,70,71.13,68,71.21v-.09a6.77,6.77,0,0,1,1.16-3.79.72.72,0,0,0,.23.23.77.77,0,0,0,.39.11.72.72,0,0,0,.32-.08l4.7-2.35,4.69,2.35a.72.72,0,0,0,.71,0,.76.76,0,0,0,.24-.23,6.85,6.85,0,0,1,1.16,3.79v1.07a.71.71,0,0,0,.36.63.92.92,0,0,1,.47.81.94.94,0,0,1-.94.94Zm5.86,4.19a6,6,0,0,1-5-2.72,2.4,2.4,0,0,0,1.55-4.22v-.7a8.65,8.65,0,0,0,0-.88,8.21,8.21,0,0,0,3.5.78,8.32,8.32,0,0,0,2.62-.43v1.07a2.4,2.4,0,0,0,1.51,2.24l1.58.63A6,6,0,0,1,86.55,78.76Z"/><path class="cls-2" d="M75.94,77.35a1.4,1.4,0,0,1-1.1.57,1.42,1.42,0,0,1-1.11-.57.73.73,0,0,0-1-.1.74.74,0,0,0-.11,1,2.84,2.84,0,0,0,4.49,0,.74.74,0,0,0-1.14-.93Z"/><circle class="cls-2" cx="72.34" cy="74.47" r="0.73"/><circle class="cls-2" cx="77.32" cy="74.47" r="0.73"/></g></svg>