<svg height="94" viewBox="0 0 108 94" width="108" xmlns="http://www.w3.org/2000/svg"><g fill="none" transform="translate(-12 -11)"><path d="m50.4542307 115.005128c21.8731406 0 62.1703773-22.6682567 62.1703773-50.7363723 0-28.0681155-16.8196764-62.26362808-38.6928169-62.26362808-21.8731406 0-55.3071829 20.39550258-55.3071829 48.46361808s9.956482 64.5363823 31.8296225 64.5363823z" fill="#fbf4f3" transform="matrix(-.22495105 .97437006 -.97437006 -.22495105 137.392578 7.723265)"/><g fill="#fd2500" transform="translate(32 32)"><path d="m35.8476562 5.36363636c-.743843 0-1.3476562.60079016-1.3476562 1.34090909s.6038132 1.3409091 1.3476562 1.3409091c.7438431 0 1.3476563-.60079017 1.3476563-1.3409091s-.6038132-1.34090909-1.3476563-1.34090909z"/><path d="m30.4570312 5.36363636h-10.2421874c-.7443696 0-1.3476563.60026627-1.3476563 1.34090909 0 .74064283.6032867 1.3409091 1.3476563 1.3409091h10.2421874c.7443696 0 1.3476563-.60026627 1.3476563-1.3409091 0-.74064282-.6032867-1.34090909-1.3476563-1.34090909z"/><path d="m51.4804687 5.36363636h-10.2421875c-.7443695 0-1.3476562.60026627-1.3476562 1.34090909 0 .74064283.6032867 1.3409091 1.3476562 1.3409091h10.2421875c.7443696 0 1.3476563-.60026627 1.3476563-1.3409091 0-.74064282-.6032867-1.34090909-1.3476563-1.34090909z"/><path d="m1.34765625 56.3181818c-.74436957 0-1.34765625.6002663-1.34765625 1.3409091s.60328668 1.3409091 1.34765625 1.3409091h66.30468755c.7443695 0 1.3476562-.6002663 1.3476562-1.3409091s-.6032867-1.3409091-1.3476562-1.3409091h-1.3476563c0-1.1476296 0-39.4143466 0-41.5681818 0-2.2182618-1.8135452-4.0227273-4.0429687-4.0227273h-1.3476563v-6.70454543c0-2.21826175-1.8135452-4.02272727-4.0429687-4.02272727h-42.046875c-2.2294236 0-4.0429688 1.80446552-4.0429688 4.02272727v6.70454543h-1.34765625c-2.22942356 0-4.04296875 1.8044655-4.04296875 4.0227273v5.0472656l-5.24848931 10.443901c-.08896647.1770418-.14213569.3870826-.14213569.5997425v2.6818182c0 2.1155984 1.0160064 4.1028675 2.6953125 5.3610174v17.4344371zm3.37019341-19.3101384c-1.24763482-.7181197-2.02253716-2.0532671-2.02253716-3.4853161v-1.3409091h8.0859375v1.3409091c0 2.2182617-1.81354519 4.0227272-4.04296875 4.0227272-.71015164 0-1.40872192-.1859464-2.02043159-.5374111zm15.65492254-15.5534979 1.0107422 8.0454545h-7.7279663l1.0107422-8.0454545zm43.2366028 13.4090909h-17.9259338c.0900192-.4399858.1368713-.8888761.1368713-1.3409091v-2.6818182c0-.2074219-.0500107-.4164152-.1421357-.5997425l-4.4156798-8.7866211h22.346878zm-25.3601533-13.4090909 4.0429688 8.0454545h-7.5484542l-2.0214844-8.0454545zm-24.7726592 10.7272727h8.0859375v1.3409091c0 2.2182617-1.8135452 4.0227272-4.0429688 4.0227272-2.1057128 0-3.8766174-1.6342329-4.0313872-3.7168323-.0078965-.1068537-.0115815-.2095171-.0115815-.3058949zm10.78125 0h8.0859375v1.3409091c0 2.2182617-1.8135452 4.0227272-4.0429688 4.0227272-2.2294235 0-4.0429687-1.8044655-4.0429687-4.0227272zm5.6859512-10.7272727 2.0214844 8.0454545h-7.8653641l-1.0107422-8.0454545zm-16.4672012 17.4197709c1.1323471.8490679 2.5358047 1.3529563 4.0429687 1.3529563 2.2020493 0 4.1603623-1.0564896 5.390625-2.6865323 1.2302628 1.6300427 3.1885758 2.6865323 5.390625 2.6865323 1.5155869 0 2.915886-.5007457 4.0429688-1.3445756v9.3900302h-18.8671875zm21.5625-6.6924982h8.0859375v1.3409091c0 .7065962-.1868821 1.401669-.5401153 2.0103161-.3553391.6117898-.8675537 1.1214399-1.4813691 1.4744761-.6127624.3519886-1.3113327.537935-2.0214844.537935-2.2294235 0-4.0429687-1.8044655-4.0429687-4.0227272zm21.0234375 24.1363636h-5.390625v-10.7272727h5.390625zm2.6953125 0v-12.0681818c0-.7406428-.6032867-1.3409091-1.3476563-1.3409091h-8.0859374c-.7443696 0-1.3476563.6002663-1.3476563 1.3409091v12.0681818h-4.8515625v-17.4339133c.5095825-.3807973.9628372-.8317827 1.3455505-1.338814h19.1388245v18.7727273zm-45.28125-52.29545453c0-.73959517.6043396-1.34090909 1.3476563-1.34090909h42.046875c.7433166 0 1.3476562.60131392 1.3476562 1.34090909v6.70454543h-44.7421875zm-5.390625 10.72727273c0-.7395952.6043396-1.3409091 1.34765625-1.3409091h52.82812505c.7433166 0 1.3476562.6013139 1.3476562 1.3409091v4.0227273h-55.5234375zm-.51484673 6.7045455h4.37882993l-1.0107422 8.0454545h-7.41105648zm-2.18046577 18.6365411c.44219971.0895686.89334866.1361861 1.34765625.1361861 1.51558689 0 2.91588596-.5007457 4.04296875-1.3445756v10.7309393c0 .7406428.6032867 1.3409091 1.3476562 1.3409091h21.5625c.7443696 0 1.3476563-.6002663 1.3476563-1.3409091v-10.7309393c1.1270828.8438299 2.5273819 1.3445756 4.0429687 1.3445756.4543076 0 .9054566-.0466175 1.3476563-.1361861v16.2270952h-35.0390625z"/></g></g></svg>