<svg height="100" viewBox="0 0 106 100" width="106" xmlns="http://www.w3.org/2000/svg"><g fill="none" transform="translate(-17 -22)"><path d="m56.6510013 129.958697c21.8731405 0 62.1703777-22.668256 62.1703777-50.736372 0-28.0681155-16.819677-62.2636281-38.6928174-62.2636281-21.8731405 0-55.3071828 20.3955026-55.3071828 48.4636181s9.956482 64.536382 31.8296225 64.536382z" fill="#fbf4f3" transform="matrix(.78801075 .61566148 -.61566148 .78801075 60.45105 -28.645202)"/><g fill="#fd2500"><path d="m92.4832039 64.5517602h-12.3212233v-14.2037777-5.4422574c-.0001359-2.7051228-2.2239612-4.9057251-4.9574952-4.9057251h-27.2059417c-2.733534 0-4.9573592 2.2006023-4.9573592 4.9057251v5.4422574 48.1696666 5.4422569c0 2.704989 2.2238252 4.905726 4.9574951 4.905726h27.2058058c2.733534 0 4.9574952-2.200603 4.9574952-4.905726v-5.4422569-9.2835263h12.3212233c2.1199806 0 3.844699-1.7067076 3.844699-3.8045497v-17.0732632c0-2.0978421-1.7247184-3.8045497-3.844699-3.8045497zm-12.3213592 2.690193h12.3213592v-.0001345c.0433592 0 .0859029.0029591.1279029.0076667.0134563.0014795.0266408.0040351.0399612.0060526.0285437.0041696.0566796.0091462.0845437.0154678.0148155.0033626.0294951.0072632.0441747.0112983.0260971.0069941.0516505.0150643.076932.023807.014.0048421.028.0098187.0417282.0151988.0267767.0104913.0527379.0223275.0782913.0348363.0108738.0052456.0221553.0100877.0328932.0157368.0357475.0188305.0706796.0391404.1039806.0616024.0032621.002152.0061165.0047076.0092427.0068596.0299029.020579.0587184.0423685.0864466.0656375.0103301.0086081.0199806.0180233.0300388.027035.0198447.0178889.0392816.0361813.057767.0554152.010466.0108948.0206602.0220585.0307184.0333568.0169903.0190994.033301.0388713.0489321.0590468.0057087.0072631.0111456.0146608.0167184.0220584l-13.231631 7.5527427-.1485631.0847369-2.2605243 1.2902865c-.5000583.2851462-1.1212233.2854152-1.6212816 0l-2.2603883-1.2902865-6.349068-3.6241813v-4.4742398h9.9213787zm-9.0109709 9.6509883-3.6288544 2.071345v-4.14269zm-25.3912427-31.9872164c0-1.22169 1.0041941-2.2156666 2.2389126-2.2156666h27.2058058c1.2345825 0 2.2390486.9939766 2.2390486 2.2156666v4.0972281h-31.683767zm31.683767 59.0540469c0 1.22169-1.0044661 2.215667-2.2390486 2.215667h-27.2058058c-1.2345825 0-2.2390486-.993977-2.2390486-2.215667v-4.0972281h31.683903zm0-6.7870176h-31.683767v-45.4797427h31.683767v12.858883h-9.9213787v-2.2690643c0-.7427251-.6086602-1.3450292-1.3592233-1.3450292s-1.3592233.6023041-1.3592233 1.3450292v3.6140936 6.5961579 8.7998538 6.5962924 3.7199473c0 .7427252.6086602 1.3450293 1.3592233 1.3450293s1.3592233-.6023041 1.3592233-1.3450293v-2.3749181h9.9213787zm15.9339029-11.0675731c-.0161748.0203099-.0323495.0399474-.0493398.0590468-.0100583.0112982-.0201165.022462-.0307185.0333567-.0186213.0192339-.0380582.0376608-.0579029.0555497-.0099223.0088772-.0195728.0181579-.029767.0267661-.0277281.023269-.0565437.045193-.0864466.0656374-.0031262.0021521-.0061165.0047076-.0092427.0068597-.0334369.0224619-.068233.0427719-.1039806.0616023-.0107379.0056491-.0220194.0103567-.0328932.0157368-.0256893.0125088-.0516505.0243451-.0782913.0348363-.0137281.0053801-.0277281.0102222-.0417281.0151988-.0252816.0088772-.0509709.0168129-.077068.023807-.0145437.0039006-.0292233.0078012-.0439029.0111638-.0278641.0063216-.0561359.0112982-.0846796.0154678-.0133204.0020176-.0263689.0044386-.0398252.0060527-.042.0047076-.0846796.0076666-.1279029.0076666h-12.3212234-2.7184466-9.9213786v-4.4743742l6.349068-3.6240468.9022524.5150117c.6688738.3818538 1.4187573.5727134 2.1687767.5727134.1674563 0 .3347767-.0110292.5012815-.0299941.5794369-.0661755 1.148136-.2460059 1.667767-.5425848l.9021165-.5150117.1485631.0848713 13.2316311 7.5526082c-.0054369.0073977-.0110097.0147953-.0167184.0220585zm.2321553-3.0042573-10.8758252-6.2079825 10.8758252-6.2079824z"/><path d="m67.4521553 44.5014094h-11.7014174c-.7505631 0-1.3592233.6023041-1.3592233 1.3450292s.6086602 1.3450292 1.3592233 1.3450292h11.7014174c.7505631 0 1.3592233-.6023041 1.3592233-1.3450292s-.6085242-1.3450292-1.3592233-1.3450292z"/><path d="m59.9047961 104.364088h3.3934369c.7505631 0 1.3592233-.602304 1.3592233-1.34503 0-.742725-.6086602-1.345029-1.3592233-1.345029h-3.3934369c-.7505631 0-1.3592233.602304-1.3592233 1.345029 0 .742726.6086602 1.34503 1.3592233 1.34503z"/><path d="m97.5998641 59.3236316h-14.0966408c-.7505631 0-1.3592233.6023041-1.3592233 1.3450292 0 .7427252.6086602 1.3450293 1.3592233 1.3450293h14.0966408c.750699 0 1.3592233-.6023041 1.3592233-1.3450293 0-.7427251-.6086602-1.3450292-1.3592233-1.3450292z"/><path d="m89.4838058 91.6491228h-2.9902912c-.7505631 0-1.3592233.6023041-1.3592233 1.3450292 0 .7427252.6086602 1.3450293 1.3592233 1.3450293h2.9902912c.7505631 0 1.3592233-.6023041 1.3592233-1.3450293 0-.7427251-.6086602-1.3450292-1.3592233-1.3450292z"/><path d="m65.4081553 58.0205673c.0733981.048421.152233.0901169.2351457.1237426.0815534.0336258.1670485.0591813.2541747.0766667.0869903.0174854.1766991.0269006.2650486.0269006.0882136 0 .1780582-.0094152.2649126-.0269006.0871262-.0174854.1727573-.0430409.2541748-.0766667.0829126-.0336257.1617475-.0753216.2351456-.1237426.0747573-.0482866.1440777-.1047778.2066019-.1666492.0625243-.0618713.1196117-.1306023.1685437-.2045789.0489321-.0726316.091068-.1506433.1250486-.2325556.0339805-.0808362.061165-.1654386.0774757-.2515204.0176699-.0862164.0271845-.1749883.0271845-.2622807 0-.0874269-.0095146-.1763334-.0271845-.2636258-.0163107-.0862163-.0434952-.1709532-.0774757-.2515204-.0339806-.0805673-.0761165-.1587135-.1250486-.2313451-.048932-.0741111-.1060194-.1427076-.1685437-.2045789-.0625242-.0618714-.1318446-.1183626-.2066019-.1681287-.0733981-.0482865-.152233-.0901169-.2351456-.1237427-.0815534-.0336257-.1670486-.0590467-.2541748-.0766666-.1738447-.0349708-.3546214-.0349708-.5299612 0-.0871262.0176199-.1727573.0430409-.2541747.0766666-.0829127.0336258-.1617476.0754562-.2351457.1237427-.0747572.0497661-.1440776.1062573-.2066019.1681287-.0625243.0618713-.1196117.1304678-.1685437.2045789-.0487961.0726316-.091068.1506433-.1250485.2313451-.0339806.0807017-.0611651.1653041-.0774758.2515204-.0176699.0872924-.0270485.1761989-.0270485.2636258 0 .3537426.145301.7007602.3982524.9509356.0625243.0618714.1318447.1183626.206466.1666492z"/></g></g></svg>