<svg height="101" viewBox="0 0 102 101" width="102" xmlns="http://www.w3.org/2000/svg"><g fill="none" transform="translate(-19 -23)"><path d="m53.3284923 128.702066c21.8731405 0 62.1703777-22.668257 62.1703777-50.7363723 0-28.0681155-16.8196768-62.2636281-38.6928174-62.2636281-21.8731405 0-55.3071828 20.3955025-55.3071828 48.4636181 0 28.0681155 9.956482 64.5363823 31.8296225 64.5363823z" fill="#fbf4f3" transform="matrix(-.87461971 -.48480962 .48480962 -.87461971 93.405075 168.560327)"/><g fill="#fd2500" transform="translate(55 44)"><path d="m28.4197627 2.12344208c-2.0294959-2.12344208-5.9761382-2.12344208-11.9469999-2.12344208-5.9708618 0-9.91750407 0-11.94699992 2.12344208-2.17710725 2.2763299-4.52576288 12.69509492-4.52576288 25.55903572 0 .1873777.00849377.7329093.00926593.7908213.09536185 9.8761935 1.9832949 32.7508124 4.55137288 35.3291858 1.9812358 1.9920461 5.63033879 2.0885662 11.91212399 2.0885662 6.2817851 0 9.9308881-.0965201 11.9122526-2.0885662 2.5679493-2.5783734 4.4560111-25.4529923 4.5513729-35.3291858.0006435-.0577833.0092659-.6034436.0092659-.7908213-.0001287-14.3117422-2.3460817-23.28013195-4.5258915-25.55903572zm-1.9812358 59.74323582c-1.2735505 1.2789556-5.4962403 1.2789556-9.9657641 1.2789556-4.4695239 0-8.69221365 0-9.93616462-1.2440797-1.07330345-1.4409806-2.65172873-12.6034652-3.38656838-23.5193731 2.83743339 4.5769829 7.4530243 8.29069 13.322733 8.29069 5.8700947 0 10.485943-3.7143506 13.3235051-8.2917195-.7335527 10.9143636-2.3064442 22.0704134-3.357741 23.4855267zm-22.49175589-27.9719094c1.01191666 1.0718878 2.18457146 2.070163 3.54421786 2.9490106.34850189.2252136.78284231.2761762 1.17973294.1501853.03757849-.0133841 3.96800539-1.3030213 7.80204099-1.3030213 3.8340355 0 7.7644624 1.2896372 7.8020409 1.3030213.1420776.0455575.2895603.0697518.4343405.0697518.2600894 0 .5201789-.0750283.7453925-.2198084 1.3597751-.8788476 2.5323012-1.8771228 3.5444752-2.949268-2.0359305 5.0896976-6.5449632 10.0326847-12.5261204 10.0326847s-10.48993258-4.9431158-12.52612049-10.032556zm20.53986219.2921341c-1.367368-.3967619-4.6651379-1.2413771-8.0138704-1.2413771s-6.64650242.8446152-8.01387042 1.2413771c-3.48591973-2.425743-5.51284171-5.6715207-5.68078668-9.0305487.28891682-11.6251375 2.50501818-19.85315384 3.73159554-21.1346833 1.2198853-1.27625304 5.07798656-1.27625304 9.96306156-1.27625304s8.7431762 0 9.9630615 1.27625304c1.1086941 1.15914198 3.4569637 8.0035749 3.7359711 21.0734252-.1459384 3.3810346-2.1780081 6.6511354-5.6851622 9.0918068z"/><path d="m8.23638139 13.7273452c-1.51485071 0-2.74541757 1.2306956-2.74541757 2.7454176v10.9817989c0 1.5148507 1.23069555 2.7454176 2.74541757 2.7454176h16.47276281c1.5148507 0 2.7454175-1.2306956 2.7454175-2.7454176v-10.9817989c0-1.5148507-1.2306955-2.7454176-2.7454175-2.7454176zm16.47276281 13.7272165h-16.47276281v-10.9817989h16.47276281z"/><path d="m16.4727628 10.9817989c.7587766 0 1.3727731-.6139964 1.3727731-1.37277308v-2.74541756c0-.75877664-.6139965-1.37277313-1.3727731-1.37277313-.7587767 0-1.3727732.61399649-1.3727732 1.37277313v2.74541756c0 .75890528.6139965 1.37277308 1.3727732 1.37277308z"/></g></g></svg>