<svg height="98" viewBox="0 0 116 98" width="116" xmlns="http://www.w3.org/2000/svg"><g fill="none" transform="translate(-16 -21)"><path d="m57.2600578 125.453194c21.8731406 0 62.1703772-22.668256 62.1703772-50.7363719 0-28.0681155-16.819676-62.2636281-38.6928168-62.2636281-21.8731406 0-55.3071829 20.3955025-55.3071829 48.4636181 0 28.0681155 9.956482 64.5363819 31.8296225 64.5363819z" fill="#fbf4f3" transform="matrix(-.5 -.8660254 .8660254 -.5 48.930435 166.156388)"/><g fill="#fd2500" transform="translate(39 39)"><path d="m55.4711484 4.93247458h-27.9199336c-.7428281 0-1.3450957.60610169-1.3450957 1.35335593 0 .74738983.6024024 1.35335593 1.3450957 1.35335593h27.9199336c.7428282 0 1.3450957-.60610169 1.3450957-1.35335593s-.6024023-1.35335593-1.3450957-1.35335593z"/><path d="m13.9123945 5.32908475c-.2502597-.25179661-.5971465-.39647458-.951041-.39647458-.3537598 0-.7007812.14467797-.9509062.39647458-.2502598.25179661-.3941895.59959322-.3941895.95688135 0 .35593221.1439297.70508475.3941895.95674576.2499902.25179661.5971464.39661017.9509062.39661017.3538945 0 .7007813-.14481356.951041-.39661017.2502598-.25152542.3940547-.60081355.3940547-.95674576 0-.35606779-.1437949-.70522034-.3940547-.95688135z"/><path d="m8.96905664 5.32908475c-.25025976-.25179661-.59714648-.39647458-.95104101-.39647458-.35375977 0-.70078126.14467797-.95090625.39647458-.25025977.25179661-.39418946.60094915-.39418946.95688135 0 .35593221.14392969.70508475.39418946.95674576.24999023.25179661.59714648.39661017.95090625.39661017.35389453 0 .70078125-.14481356.95104101-.39661017.25025977-.25152542.39405469-.60081355.39405469-.95674576.00013476-.35606779-.14366016-.70522034-.39405469-.95688135z"/><path d="m18.8557324 5.32908475c-.2514726-.25179661-.5971465-.39647458-.9523887-.39647458-.3537597 0-.6994335.14467797-.9509062.39647458-.250125.25179661-.3941895.60094915-.3941895.95688135 0 .35593221.1439297.70508475.3941895.95674576.2513379.25179661.5971465.39661017.9509062.39661017.3552422 0 .7007813-.14481356.9523887-.39661017.2502598-.25152542.3927071-.60081355.3927071-.95674576.0001347-.35606779-.1424473-.70522034-.3927071-.95688135z"/><path d="m68.6060801 56.4286102-10.589209-10.6541017 1.6612559-1.6714577c.0004043-.0004067.0009433-.0008135.0013476-.0012203s.0008086-.0009491.0012129-.0013559l1.6608516-1.6710509 5.2311972 5.2634577c.5254512.5284067 1.3769004.5284067 1.9023516 0 .5253164-.5285424.5253164-1.3854916 0-1.9140339l-6.1822383-6.2202034c-.5251816-.5282712-1.3766308-.5285424-1.9023516 0l-1.6621992 1.6722712-.8052246-.8101695c2.3128477-2.7589153 3.7088848-6.32 3.7088848-10.2033899 0-8.7391186-7.0664356-15.8489491-15.7522149-15.8489491-4.4747578 0-8.519748 1.8871864-11.3899863 4.9118644-.012668-.0004068-.0249316-.0018983-.0375996-.0018983h-25.84346484c-.74282813 0-1.3450957.6061017-1.3450957 1.3533559v18.9472543c0 .7473898.60240234 1.3533559 1.3450957 1.3533559h25.67487304c2.8812891 3.1540339 7.0129336 5.1341017 11.596043 5.1341017 3.8596875 0 7.3987676-1.4047458 10.1411133-3.731661l.8052246.8101695-1.6626035 1.6728135c-.2521465.2536949-.39392.5981017-.39392.957017 0 .3589152.1417735.7030508.39392.9570169l5.6357636 5.6703729v5.8534237c0 1.6417627-1.3274414 2.977356-2.9591836 2.977356h-52.19041403c-1.63174219 0-2.9591836-1.3355933-2.9591836-2.977356v-45.7449491c.00498633 0 .00983789.0008135.01468946.0008135h58.09422657v6.1000678c0 .7473899.6024023 1.353356 1.3450957 1.353356.7426933 0 1.3450957-.6061017 1.3450957-1.353356v-12.86698303c0-3.13423729-2.5342676-5.68420339-5.6495098-5.68420339h-52.19041403c-3.11524219 0-5.64950977 2.5499661-5.64950977 5.68420339v52.51091523c0 3.1342373 2.53426758 5.6842034 5.64950977 5.6842034h52.19041403c3.1151075 0 5.6495098-2.5498305 5.6495098-5.6842034v-3.1468474l3.2142949 3.2340339c.2626582.2641356.6068496.396339.9511758.396339s.6883828-.1322034.9511758-.396339c.5251816-.5285424.5251816-1.3854916 0-1.9140339zm-38.4735645-25.7993221-1.695082-3.2945084c-.3414961-.6638644-1.153459-.9232543-1.8131367-.5796611-.6596778.3435933-.9176192 1.1602712-.5761231 1.8242712l3.1586367 6.1389831c.239209.4649491.709002.7313898 1.1956407.7313898.1894804 0 .3812519-.0425763.5631855-.1274576.3451348 1.0181695.7913438 1.9895593 1.3252852 2.9031864h-22.33713284v-16.2405423h22.46987694c-1.4564121 2.4009491-2.2964062 5.219661-2.2964062 8.2322711 0 .1378983.0017519.2752543.0052558.4120678zm15.7470938 12.7300339c-7.2022793 0-13.0620235-5.8954576-13.0620235-13.1421017 0-.1031864.0014825-.2059661.0039082-.3086101l2.4744317 4.8094915c.2313926.4497627.692291.7312542 1.1944277.7312542.0067383 0 .0136113 0 .0202149-.0001356.5099531-.0077288.9716601-.3048135 1.1924062-.767322l2.9304785-6.138983c.3215508-.6738984.0393516-1.4821695-.6302988-1.8059661-.6691113-.3233899-1.4731231-.0395933-1.7949434.6341694l-1.7628691 3.6934238-1.9189277-3.7296271c-.2410957-.4684746-.7164141-.7343729-1.206961-.7303051 1.5638203-5.4955933 6.6024375-9.5296271 12.5601563-9.5296271 7.202414 0 13.0620234 5.8957288 13.0620234 13.1422372 0 7.2465085-5.8597441 13.1421017-13.0620234 13.1421017zm-43.18941799-37.61477963c0-1.64176271 1.3274414-2.97735593 2.95918359-2.97735593h52.1904141c1.6317421 0 2.9591836 1.33559322 2.9591836 2.97735593v4.0600678h-58.09409184c-.00498633 0-.00983789.00067797-.01468945.00081356z"/><path d="m24.5914922 26.7369492c-.6691113-.3232543-1.4731231-.0395933-1.7949434.6341694l-1.7628691 3.6932882-1.9189277-3.7296271c-.2343575-.4558644-.7028028-.740339-1.2146426-.7311187-.5099532.0077288-.9716602.3048136-1.1924063.7673221l-1.7628691 3.6932881-1.9189278-3.7296271c-.341496-.664-1.1537285-.9233899-1.8130019-.5797966-.6598125.3435932-.9177539 1.1602711-.5762578 1.8241356l3.1585019 6.138983c.2344922.4558644.7064414.7389831 1.2146426.7311186.5099531-.0077288.9716602-.3048135 1.1924063-.767322l1.7628691-3.6934237 1.9189277 3.7296271c.2313926.4497627.6922911.7312542 1.1944278.7312542.0067383 0 .0136113 0 .0202148-.0001356.5099531-.0077288.9716602-.3048135 1.1924063-.767322l2.9304785-6.138983c.3218203-.6736272.0397558-1.4820339-.6300293-1.8058305z"/><path d="m55.4152207 26.7369492c-.6697852-.3232543-1.473123-.0395933-1.7949434.6341694l-1.7628691 3.6932882-1.9189277-3.7297627c-.2343575-.4555933-.7085977-.7372204-1.2146426-.7309831-.5099531.0077288-.9716602.3048136-1.1924063.7673221l-1.7628691 3.6934237-1.9189277-3.7297627c-.3414961-.6635933-1.15292-.9232543-1.8131368-.579661-.6596777.3435932-.9176191 1.1602711-.576123 1.8242711l3.1586367 6.1389831c.2313926.4494915.692291.7311186 1.1944278.7311186.006873 0 .0136113 0 .0202148-.0001356.5099531-.0077288.9716602-.3048135 1.1924062-.767322l1.7628692-3.6932881 1.9189277 3.7297627c.2313926.4494915.692291.7311186 1.1944278.7311186.006873 0 .0136113 0 .0202148-.0001356.5099531-.0077288.9716602-.3048135 1.1924063-.767322l2.9303437-6.1389831c.3216855-.6738983.0394863-1.482305-.6300293-1.8061016z"/><path d="m9.55959961 51.6143729c-.24999023-.253017-.59714648-.3964746-.95090625-.3964746s-.70078125.1434576-.95104102.3964746c-.25025976.2517966-.39405468.6009491-.39405468.9568813s.14379492.7050848.39405468.9567458c.25025977.2517966.59728125.3966102.95104102.3966102s.70078125-.1448136.95090625-.3966102c.25025977-.2515254.39418945-.6008136.39418945-.9567458s-.14392968-.7050847-.39418945-.9568813z"/><path d="m39.4209668 51.2192542h-26.194125c-.7428281 0-1.3450957.6059661-1.3450957 1.353356 0 .7473898.6024023 1.3533559 1.3450957 1.3533559h26.1939902c.7428282 0 1.3450957-.6061017 1.3450957-1.3533559.0001348-.7473899-.6021328-1.353356-1.3449609-1.353356z"/><path d="m34.4349082 44.7223051h-7.9362129c-.7428281 0-1.3450957.6061017-1.3450957 1.3533559 0 .7473898.6024024 1.3533559 1.3450957 1.3533559h7.9362129c.7428281 0 1.3450957-.6061016 1.3450957-1.3533559 0-.7472542-.6022676-1.3533559-1.3450957-1.3533559z"/><path d="m20.4579609 44.7223051h-11.84926754c-.74282813 0-1.3450957.6061017-1.3450957 1.3533559 0 .7473898.60240234 1.3533559 1.3450957 1.3533559h11.84926754c.7428282 0 1.3450957-.6061016 1.3450957-1.3533559 0-.7472542-.6022675-1.3533559-1.3450957-1.3533559z"/></g></g></svg>