<svg height="101" viewBox="0 0 101 101" width="101" xmlns="http://www.w3.org/2000/svg"><g fill="none" transform="translate(-20 -19)"><path d="m56.781325 124.52368c21.8731405 0 62.170377-22.668256 62.170377-50.7363717 0-28.0681155-16.819676-62.2636281-38.6928167-62.2636281-21.8731405 0-55.3071829 20.3955025-55.3071829 48.463618 0 28.0681156 9.956482 64.5363818 31.8296226 64.5363818z" fill="#fbf4f3" transform="matrix(.46947156 -.88294759 .88294759 .46947156 -21.88892 99.618079)"/><g fill="#fd2500" transform="translate(39 36)"><path d="m53.1370353 15.8582294c-4.9364765-4.9424294-11.5024353-7.66617058-18.4887529-7.66914705-14.4195118 0-26.15546475 11.73027055-26.16155299 26.14897055-.00175882 4.9422942 1.38094706 9.7549765 3.99875299 13.9175706l.2661235.4234706-2.3420765 8.5561353c-.1301529.4755588.0032471.9842647.3501412 1.3348118.3467588.350547.8538412.4892235 1.3310235.364347l8.8169824-2.3129882.4083176.2424471c4.0168824 2.3834764 8.6197235 3.6444176 13.3117235 3.646447h.0102824c14.4141 0 26.1453176-11.7310823 26.1511353-26.1505941.0031118-6.9882118-2.7144059-13.5587706-7.6521-18.5014706zm-18.4991706 41.8924706v1.3798647l-.0096059-1.3798647c-4.1964176-.0018941-8.3127412-1.1293-11.9035823-3.2600471l-.9043059-.5371176c-.2149824-.1277177-.4586471-.1934706-.7046118-.1934706-.1170294 0-.2347353.0148824-.3501412.0454588l-7.0631647 1.852853 1.8711177-6.8357353c.1020118-.3728706.0430235-.7713118-.1627588-1.0987236l-.5892059-.9371823c-2.3407235-3.7219412-3.5770412-8.0263235-3.5754177-12.4476.0054118-12.8974529 10.5034236-23.3903235 23.4011471-23.3903235 6.2484235.0027058 12.1214059 2.4388117 16.5368647 6.8596823 4.4168118 4.4212765 6.8477765 10.2988588 6.8449353 16.549853-.0050059 12.8986705-10.4981471 23.3923529-23.3912706 23.3923529z"/><path d="m58.9289765 10.0702118c-6.4842412-6.49060004-15.1107294-10.06696474-24.2909765-10.0702118-18.9265647 0-34.33074706 15.4025588-34.33845882 34.3348059-.00175883 5.8356412 1.48282353 11.5833412 4.29910588 16.6617412l-4.52599412 16.5295588c-.13015294.4755588.00311177.9844.34987059 1.334947.26247059.2654471.61707647.4095353.98101765.4095353.11662353 0 .23432941-.014747.35014117-.0450529l16.94842945-4.4454941c4.8883117 2.5635529 10.3813882 3.9171706 15.9361588 3.9193353 18.9267 0 34.3308823-15.4035059 34.3383235-34.3368353.0031118-9.1752412-3.5651353-17.8024059-10.0476176-24.2923294zm-24.3035589 55.8694353c-5.2663235-.0020295-10.4842117-1.3308883-15.0890823-3.8430295-.3090118-.1684411-.6705177-.212547-1.0109177-.1233882l-15.15970584 3.9762941 4.04502353-14.7726294c.09727647-.3554176.0484353-.7350529-.13583529-1.0542117-2.75959412-4.7818353-4.21738824-10.2408177-4.21562941-15.7869295.00703529-17.411 14.17327651-31.57588819 31.57818821-31.57588819 8.4424883.00297647 16.3758647 3.29184117 22.338953 9.26074709 5.9617353 5.9686353 9.2431588 13.9026882 9.2401823 22.3409823-.0069 17.4122177-14.1730059 31.578053-31.5911765 31.578053z"/><path d="m60.1836941 47.9518882c-.654147-.3905941-1.5014941-.1772353-1.8922235.4771824-4.9593412 8.3040823-14.0226941 13.4625765-23.6652412 13.4625765-.7621118 0-1.3739118.6177529-1.3739118 1.3798647 0 .7621117.6237059 1.3798647 1.3858177 1.3798647 5.3307235 0 10.5768882-1.4117941 15.1716118-4.0825 4.4553705-2.5899353 8.2077529-6.2984824 10.8512647-10.7247647.3907294-.6542824.1771-1.5013589-.4773177-1.8922236z"/><path d="m62.7348 41.3169294c-.7299118-.2186353-1.4991941.1957706-1.7178294.925953-.1580235.5275117-.3347177 1.0578647-.5250765 1.5761764-.2627412.7153.1043118 1.5082588.8196118 1.771.1569412.0576353.3175353.0849647.4755588.0849647.5621471 0 1.0903353-.3462176 1.2955765-.9044411.2094353-.5706706.4039882-1.1547353.5779764-1.7358236.2189059-.7301823-.1956352-1.4993294-.9258176-1.7178294z"/><path d="m50.9631294 44.6534176-7.745047-7.745047c-.3543353-.3542-.8729177-.4886824-1.3548353-.3510882l-1.1535177.3295764c-.1374588.0392353-.2680176.0995765-.3869412.1789941l-2.5383882 1.6938824c-3.0308588-2.0947588-5.6686882-4.7822412-7.7078412-7.8512529l1.8535294-1.8536648c.1658706-.1657352.286553-.3711117.3510883-.5965117l.3297117-1.1535177c.1377294-.4819176.0032471-1.0005-.3510882-1.3549706l-7.7450471-7.745047c-.3824764-.3824765-.9532823-.5062706-1.4602294-.3163177l-1.3183059.4943647c-.1844058.069-.3519.1769648-.4912529.3163177-4.5814647 4.5814647-4.5813294 12.0361706 0 16.6176353l12.6063 12.6063c2.2910706 2.2910706 5.2994706 3.4360647 8.3088177 3.4360647 3.0085352 0 6.0182882-1.1455353 8.308547-3.4357941.1392177-.139353.2471824-.3068471.3163177-.491253l.4943647-1.3183058c.1900882-.5066765.0662941-1.077753-.3161824-1.4603648zm-2.6532529 1.5192177c-1.7251353 1.6192-3.9369236 2.4283941-6.1499294 2.4281235-2.3020295-.0002706-4.6048706-.8765706-6.3573353-2.6291706l-12.6063-12.6063c-3.4371471-3.437147-3.5043883-8.9875882-.2010471-12.5072647l.1957706-.0736 6.5426882 6.542553-.0082529.0289529-2.3837471 2.3838824c-.4506647.4506647-.5340059 1.1513529-.2015882 1.6952353 2.4791294 4.0569294 5.9008529 7.5641588 9.8954118 10.1428647.4620294.2981882 1.0570529.2937235 1.5144823-.0115l3.1252941-2.0854236.1653294-.0474882 6.5426883 6.5428235z"/></g></g></svg>